<svg width="124" height="102" viewBox="0 0 124 102" fill="none" xmlns="http://www.w3.org/2000/svg">
<g id="&#208;&#155;&#208;&#190;&#208;&#179;&#208;&#190; &#208;&#182;&#209;&#131;&#209;&#128;&#208;&#176;&#208;&#178;&#208;&#187;&#208;&#184; 2">
<path id="Vector" d="M7.55328 58.6595C8.2249 57.544 9.33737 56.9274 10.4622 56.3265C12.3988 55.2935 14.5372 54.8261 16.6716 54.3627C17.0424 54.2842 17.4091 54.1938 17.7799 54.1192C18.631 53.9533 19.4489 53.659 20.2027 53.2472C22.1157 52.2361 24.258 51.6835 26.4449 51.637C30.6065 51.4916 34.7762 51.413 38.9418 51.3541C43.5566 51.2874 48.0889 50.7375 52.3782 49.0526C54.2076 48.3338 55.9176 47.3323 57.681 46.4525C57.9353 46.2983 58.2134 46.183 58.5051 46.1108L57.9282 46.6057C54.6759 49.5424 50.597 51.513 46.1895 52.2772C43.9126 52.6075 41.6181 52.816 39.3168 52.9016C37.7057 52.9959 36.0864 52.9016 34.4713 52.9487C34.1473 52.9577 33.8299 53.0384 33.5442 53.1844C31.7683 54.0878 29.9843 54.9793 27.9736 55.3053C26.4832 55.5023 24.9657 55.3856 23.5278 54.9636C22.885 54.8026 22.2422 54.6533 21.4676 54.4687C21.962 54.9518 22.3452 55.3328 22.7408 55.702C22.8272 55.7723 22.9331 55.8173 23.0457 55.8316C24.4191 55.9966 25.7925 56.1563 27.166 56.3108C28.1897 56.4027 29.2196 56.2118 30.1326 55.7609C30.9567 55.3917 31.7354 54.9754 32.5224 54.5826C32.4482 54.6735 32.3684 54.76 32.2834 54.8419C30.3098 56.5543 28.0519 57.434 25.3324 57.1198C21.8899 56.7889 18.4274 56.6852 14.9699 56.8096C13.1218 56.8148 11.2862 57.0985 9.53105 57.6501C8.81645 57.8771 8.14767 58.2184 7.55328 58.6595ZM14.496 55.9534L22.3246 55.6431C21.5252 55.211 20.8166 54.7672 20.0502 54.4412C19.7962 54.3455 19.5233 54.3041 19.2506 54.3197C18.978 54.3353 18.7123 54.4076 18.4721 54.5315C17.7593 54.8536 17.0176 55.1129 16.276 55.376C15.6621 55.5959 15.0234 55.7727 14.496 55.9534Z" fill="white"/>
<path id="Vector_2" d="M67.2974 19.9964C68.3605 19.3483 69.3575 18.6138 70.4905 18.0679C75.5947 15.583 80.9607 13.62 86.4978 12.2119C89.2258 11.501 91.9696 10.8215 94.6359 9.93388C96.8975 9.1837 99.0772 8.19004 101.257 7.22776C102.202 6.75214 103.12 6.22768 104.005 5.65674L103.729 6.04948C102.567 7.78942 100.886 9.03052 99.2378 10.3149C94.9777 13.6298 90.0454 15.5385 84.7304 16.599C80.3507 17.4749 75.9415 18.225 71.5455 19.0655C70.2268 19.3208 68.9333 19.7018 67.6272 20.0238L67.359 20.0906L67.2974 19.9964Z" fill="white"/>
<path id="Vector_3" d="M65.8604 16.8179C69.2436 14.2013 72.9195 11.9476 76.8202 10.0978C80.5572 8.27934 84.4717 6.89292 88.3572 5.42793C90.4545 4.64241 92.5638 3.8569 94.5994 2.94962C96.1692 2.23873 97.632 1.31182 99.132 0.475238C99.4329 0.293684 99.7482 0.13479 100.076 0L99.8773 0.278859C97.2569 3.95901 93.4991 6.35094 89.5771 8.55036C86.1447 10.471 82.4071 11.7121 78.6663 12.9178C74.4881 14.269 70.269 15.4983 66.0706 16.7786C66.0013 16.7968 65.9315 16.8099 65.8604 16.8179Z" fill="white"/>
<path id="Vector_4" d="M73.6346 61.1694C72.0484 61.4718 70.4704 61.8408 68.8716 62.0688C65.8641 62.4888 62.8932 62.0136 59.9307 61.5618C56.3996 61.02 53.0622 59.8495 49.6835 58.8126C45.6208 57.544 41.4964 56.5032 37.2319 56.134C35.5838 55.9926 33.8821 56.1104 32.2546 56.1104C32.3098 56.0719 32.3692 56.039 32.4317 56.0123C33.8697 55.4349 35.2789 54.7633 36.758 54.3037C39.0284 53.5968 41.3357 53.8913 43.6431 54.3037C48.0848 55.0892 52.3287 56.4679 56.5685 57.9093C59.9596 59.064 63.3545 60.2304 66.9272 60.8154C68.8716 61.1298 70.8329 61.0632 72.7943 61.0434C73.0662 61.0434 73.3381 61.0434 73.6182 61.0434L73.6346 61.1694Z" fill="white"/>
<path id="Vector_5" d="M103.445 14.4192C102.831 14.973 102.258 15.5739 101.599 16.0687C97.1587 19.4679 91.8916 21.7453 86.2839 22.6906C80.464 23.6034 74.5914 24.1818 68.6985 24.4227C68.6576 24.4266 68.6167 24.4212 68.5789 24.4068C68.5405 24.3925 68.5072 24.3697 68.4801 24.3403C69.1643 24.0693 69.8479 23.7904 70.5403 23.5272C76.5407 21.2093 82.7842 19.5107 89.1642 18.4606C93.2763 17.7269 97.3136 16.6505 101.228 15.244C101.962 14.9926 102.658 14.643 103.371 14.3367L103.445 14.4192Z" fill="white"/>
<path id="Vector_6" d="M104.869 22.0952C102.756 23.8879 100.157 24.9638 97.1839 25.5353C94.1084 26.1054 90.9361 26.2995 87.7744 26.1111C84.4868 25.9437 81.0928 25.2435 77.8046 25.0941L77.5371 24.7457V24.9423C78.2578 24.7858 72.9636 23.5154 73.6843 23.3691C77.8267 22.5402 88.0746 23.8328 92.358 23.806C94.8795 23.82 97.396 23.6709 99.8817 23.3601C101.536 23.125 103.144 22.7226 104.666 22.1625L104.869 22.0952Z" fill="white"/>
<path id="Vector_7" d="M73.0662 10.1132C72.1145 10.6867 71.1836 11.2915 70.2029 11.8257C66.9846 13.5656 63.7379 15.2663 60.5199 17.014C59.7788 17.4135 59.0877 17.8918 58.4597 18.4398C57.9449 18.8628 57.5649 19.415 57.3632 20.0336C57.1614 20.6523 57.1459 21.3126 57.3184 21.9393C57.7805 23.7712 58.4722 25.5435 59.3786 27.2179C60.9937 30.36 61.2986 33.6395 60.8907 37.0369C60.723 38.9948 60.3377 40.9301 59.7411 42.8104C59.7065 42.9417 59.6302 43.0597 59.5228 43.1482C59.5804 42.7555 59.6546 42.3234 59.6876 41.9071C59.9596 38.4547 60.0996 34.9828 59.1973 31.6011C58.7564 29.9476 57.9117 28.3844 57.1989 26.8016C56.4044 25.1967 55.8218 23.5041 55.4643 21.7625C55.1346 19.8262 55.9422 18.314 57.3472 17.0494C58.5833 15.9183 60.1861 15.2977 61.7436 14.6536C65.3996 13.1428 69.0573 11.6372 72.7163 10.1368L73.0165 10.0229L73.0662 10.1132Z" fill="white"/>
<path id="Vector_8" d="M115.304 58.3911C114.027 59.8168 112.362 60.4609 110.463 60.6571C103.714 61.3603 96.9441 61.3249 90.1745 61.2973C86.5363 61.2973 82.8975 61.1485 79.2593 61.0813C78.6582 61.0813 78.0565 61.1365 77.4591 61.1677L77.4346 61.0267C78.769 60.8065 80.0958 60.5437 81.4391 60.3787C85.1477 59.915 88.8847 59.7854 92.6173 59.5929C97.0719 59.3691 101.509 59.4987 105.955 59.6715C107.603 59.7343 109.252 59.7501 110.899 59.7618C112.328 59.7888 113.729 59.3906 114.908 58.6228C115.032 58.5443 115.172 58.4697 115.304 58.3911Z" fill="white"/>
<path id="Vector_9" d="M25.0642 53.8084C25.4056 53.8084 25.6823 53.5446 25.6823 53.2193C25.6823 52.8939 25.4056 52.6301 25.0642 52.6301C24.7229 52.6301 24.4462 52.8939 24.4462 53.2193C24.4462 53.5446 24.7229 53.8084 25.0642 53.8084Z" fill="#3C3C3C"/>
<path id="Vector_10" d="M78.7954 31.1616C80.0568 31.1823 81.3138 31.0963 82.5745 31.2391C88.2685 31.8609 93.8781 33.0554 99.3083 34.8027C101.993 35.649 104.673 36.5302 107.409 37.1966C109.729 37.7647 112.121 38.0864 114.495 38.4343C115.559 38.5366 116.627 38.5836 117.696 38.5749L117.239 38.7565C115.261 39.5931 113.14 39.7404 111.022 39.9411C105.549 40.4557 100.332 39.4448 95.2893 37.5251C91.1324 35.9449 87.0247 34.2448 82.8742 32.6264C81.6279 32.1438 80.3287 31.7788 79.0541 31.3583L78.7922 31.2727L78.7954 31.1616Z" fill="white"/>
<path id="Vector_11" d="M79.4424 27.7569C83.7799 27.3616 88.1495 27.4226 92.4731 27.939C96.6413 28.395 100.707 29.3043 104.794 30.133C106.997 30.5847 109.21 31.0428 111.432 31.3605C113.152 31.5962 114.909 31.5954 116.644 31.6895C117 31.6971 117.355 31.731 117.706 31.7912L117.379 31.9192C113.06 33.6029 108.542 33.6137 103.998 33.3773C100.024 33.1671 96.19 32.2301 92.3737 31.2615C88.1092 30.1837 83.8813 28.9827 79.6407 27.8351C79.5727 27.8138 79.5066 27.7877 79.4424 27.7569Z" fill="white"/>
<path id="Vector_12" d="M112.6 44.9257C111.767 45.0632 110.942 45.2618 110.105 45.3263C104.434 45.8163 98.7241 44.9356 93.5042 42.7658C88.1256 40.4567 82.8981 37.8416 77.8493 34.9346C77.8135 34.9164 77.7826 34.8902 77.7593 34.8583C77.7354 34.8262 77.7209 34.7894 77.7153 34.7507C78.4423 34.8857 79.1743 35.0141 79.9032 35.1599C86.2474 36.3934 92.4341 38.2711 98.3578 40.761C102.21 42.3185 106.198 43.5508 110.275 44.4437C111.032 44.6211 111.815 44.6971 112.586 44.8178L112.6 44.9257Z" fill="white"/>
<path id="Vector_13" d="M108.485 50.4188C104.652 51.4198 100.889 51.1832 97.1436 50.0565C93.2851 48.863 89.6381 47.1202 86.3266 44.8872C82.8591 42.6021 79.3625 40.3509 75.8786 38.0887L75.4839 37.8388L75.5305 37.7222C76.4545 37.9723 77.3779 38.2082 78.2931 38.4714C83.5407 39.9994 88.5801 42.1151 93.3053 44.7743C96.0622 46.3783 98.9507 47.7669 101.942 48.9265C103.957 49.6616 106.062 50.1496 108.206 50.379L108.485 50.4188Z" fill="white"/>
<path id="Vector_14" d="M88.4221 25.865C87.296 25.8407 86.1693 25.8535 85.0426 25.7813C81.3522 25.5336 77.6605 25.2381 73.9657 24.9969C73.116 24.9389 72.2631 24.9729 71.4215 25.0981C70.7474 25.1789 70.1104 25.4386 69.5835 25.8475C69.056 26.2565 68.6601 26.7984 68.4398 27.4113C67.7613 29.1811 67.3093 31.0222 67.0922 32.895C66.6144 36.3642 64.9647 39.2569 62.6532 41.8719C61.3771 43.4144 59.9329 44.8234 58.3447 46.0752C58.2395 46.1662 58.1076 46.2242 57.9667 46.2414C58.2427 45.9446 58.5553 45.6238 58.8244 45.2944C61.0546 42.5619 63.1865 39.7435 64.3976 36.4507C64.9899 34.8408 65.1932 33.0932 65.5186 31.3987C65.788 29.6428 66.2852 27.9256 66.9978 26.2863C67.8475 24.4995 69.3978 23.6658 71.3019 23.3532C72.9882 23.0628 74.6833 23.3911 76.3551 23.676C80.2771 24.3455 84.1979 25.0202 88.1162 25.6999L88.4334 25.7637L88.4221 25.865Z" fill="white"/>
<path id="Vector_15" d="M89.3543 51.3129C87.9953 51.1293 86.6861 50.7004 85.4958 50.0492C83.3595 49.0125 81.5794 47.5274 79.8308 45.9911C78.0816 44.4549 76.2827 42.9905 74.5064 41.4935C74.3622 41.3833 74.2578 41.2331 74.2074 41.0637C75.3259 41.5172 76.4558 41.9543 77.5636 42.4296C79.929 43.479 82.0691 44.9377 83.875 46.7317C85.5506 48.4154 87.3848 49.9489 89.3543 51.3129Z" fill="white"/>
<path id="Vector_16" d="M70.3319 46.7327C72.2932 47.7435 73.5817 49.224 74.8098 50.7698C75.8313 52.0803 76.6968 53.495 77.3911 54.9878C78.181 56.6291 78.9798 58.2662 80.1959 59.7151C80.0379 59.6435 79.8755 59.5784 79.7244 59.4969C77.8682 58.5054 76.5766 56.9804 75.5003 55.2948C74.4239 53.6093 73.5156 51.9311 72.5142 50.2595C71.8879 49.2126 71.2245 48.1844 70.5768 47.1473L70.3319 46.7327Z" fill="white"/>
<path id="Vector_17" d="M72.5507 43.5557C75.4795 44.8871 77.9721 46.9542 79.761 49.5349C80.7693 50.9275 81.75 52.3028 82.7785 53.666C83.097 54.0892 83.515 54.448 83.8309 54.9311C83.3406 54.7053 82.8352 54.5079 82.365 54.2528C80.5245 53.2526 79.1605 51.7526 77.8745 50.1981C76.4312 48.45 75.0748 46.6342 73.6799 44.8598C73.306 44.416 72.9215 43.9886 72.5507 43.5557Z" fill="white"/>
<path id="Vector_18" d="M66.9587 49.521C68.2969 50.2189 69.5073 51.1189 70.5428 52.1861C72.0553 53.6767 73.3274 55.3732 74.3163 57.2201C75.0936 58.7801 76.0498 60.2531 77.167 61.6127C77.1935 61.6631 77.2149 61.7159 77.23 61.7705C75.7118 61.0457 74.3893 59.997 73.3652 58.7064C71.5556 56.6179 70.1708 54.2608 68.6677 51.9604C68.1333 51.1792 67.5775 50.4078 66.9587 49.521Z" fill="white"/>
<path id="Vector_19" d="M12.9577 90.768C13.327 90.768 13.713 90.7998 14.1159 90.864C14.5187 90.9198 14.8334 90.996 15.06 91.092C15.1356 91.116 15.1817 91.1478 15.1985 91.188C15.2237 91.2198 15.2447 91.2798 15.2615 91.368L15.4125 93.036C15.4125 93.06 15.3916 93.0762 15.3496 93.084C15.3076 93.0918 15.2824 93.0798 15.274 93.048C14.9887 92.4162 14.6068 91.9278 14.1285 91.584C13.6501 91.2402 13.0962 91.068 12.4667 91.068C11.6359 91.068 10.9938 91.3602 10.5406 91.944C10.0875 92.5278 9.86085 93.312 9.86085 94.296C9.86085 95.0322 9.98252 95.7042 10.2259 96.312C10.4777 96.9198 10.826 97.404 11.2708 97.764C11.724 98.1162 12.2359 98.292 12.8066 98.292C13.3437 98.292 13.8221 98.124 14.2418 97.788C14.6698 97.4442 15.0517 96.924 15.3873 96.228C15.3957 96.1962 15.4209 96.1842 15.4629 96.192C15.5132 96.1998 15.5384 96.216 15.5384 96.24L15.3496 97.872C15.3328 97.968 15.3118 98.0322 15.2866 98.064C15.2698 98.088 15.2237 98.1162 15.1482 98.148C14.4012 98.412 13.6333 98.544 12.8444 98.544C11.8205 98.544 10.9645 98.352 10.2763 97.968C9.58811 97.5762 9.08034 97.0842 8.75303 96.492C8.4341 95.892 8.27466 95.268 8.27466 94.62C8.27466 93.8598 8.48867 93.1878 8.91669 92.604C9.35308 92.0202 9.92801 91.5678 10.6414 91.248C11.3631 90.9282 12.1352 90.768 12.9577 90.768ZM22.3231 96.492C22.3231 96.4758 22.3399 96.468 22.3735 96.468C22.3986 96.468 22.4197 96.4758 22.4364 96.492C22.4616 96.4998 22.4742 96.5082 22.4742 96.516C22.3903 97.14 22.3483 97.7082 22.3483 98.22C22.3483 98.2842 22.3357 98.3322 22.3105 98.364C22.2853 98.388 22.235 98.4 22.1594 98.4H16.5952C16.57 98.4 16.5574 98.376 16.5574 98.328C16.5574 98.28 16.57 98.256 16.5952 98.256C16.8638 98.256 17.0568 98.2362 17.1743 98.196C17.3002 98.1558 17.3841 98.0802 17.426 97.968C17.468 97.848 17.489 97.668 17.489 97.428V91.872C17.489 91.632 17.468 91.4562 17.426 91.344C17.3841 91.2318 17.3002 91.1562 17.1743 91.116C17.0484 91.068 16.8554 91.044 16.5952 91.044C16.57 91.044 16.5574 91.02 16.5574 90.972C16.5574 90.924 16.57 90.9 16.5952 90.9H21.9328C22.0168 90.9 22.0587 90.936 22.0587 91.008L22.0839 92.604C22.0839 92.6202 22.0587 92.6322 22.0084 92.64C21.9665 92.6478 21.9413 92.64 21.9328 92.616C21.7986 92.1522 21.572 91.8078 21.2531 91.584C20.9342 91.3602 20.5145 91.248 19.9942 91.248H19.6165C19.3647 91.248 19.1801 91.3002 19.0626 91.404C18.9451 91.5078 18.8864 91.668 18.8864 91.884V94.332H19.9312C20.418 94.332 20.7915 94.2522 21.0516 94.092C21.3118 93.9318 21.4419 93.708 21.4419 93.42C21.4419 93.396 21.4629 93.384 21.5048 93.384C21.5552 93.384 21.5804 93.396 21.5804 93.42L21.5678 94.5L21.5804 95.076C21.5972 95.3478 21.6055 95.5638 21.6055 95.724C21.6055 95.7402 21.5804 95.748 21.53 95.748C21.4797 95.748 21.4545 95.7402 21.4545 95.724C21.4545 95.3958 21.3202 95.1402 21.0516 94.956C20.7915 94.764 20.4138 94.668 19.9186 94.668H18.8864V97.38C18.8864 97.6122 18.9326 97.7838 19.0248 97.896C19.1172 98.0082 19.264 98.064 19.4654 98.064H19.8809C20.5355 98.064 21.0601 97.9362 21.4545 97.68C21.8489 97.4238 22.1385 97.0278 22.3231 96.492ZM25.8198 91.176C24.821 91.176 24.1035 91.7958 23.6671 93.036C23.6587 93.06 23.6335 93.072 23.5916 93.072C23.5496 93.0642 23.5286 93.048 23.5286 93.024C23.5622 92.7042 23.5999 92.292 23.6419 91.788C23.6838 91.2762 23.7049 90.8922 23.7049 90.636C23.7049 90.5958 23.7258 90.576 23.7678 90.576C23.8182 90.576 23.8433 90.5958 23.8433 90.636C23.8433 90.8118 24.0825 90.9 24.5609 90.9C25.2826 90.924 26.1261 90.936 27.0912 90.936C27.5864 90.936 28.1109 90.9282 28.6649 90.912L29.5209 90.9C29.8398 90.9 30.0706 90.8802 30.2133 90.84C30.3643 90.7998 30.4608 90.72 30.5028 90.6C30.5112 90.5682 30.5364 90.552 30.5784 90.552C30.6287 90.552 30.6539 90.5682 30.6539 90.6C30.6287 90.84 30.5993 91.224 30.5658 91.752C30.5406 92.28 30.528 92.7042 30.528 93.024C30.528 93.048 30.507 93.06 30.4651 93.06C30.4231 93.06 30.3979 93.048 30.3895 93.024C30.2636 92.4078 30.0286 91.9482 29.6845 91.644C29.3404 91.332 28.9166 91.176 28.4131 91.176C28.1697 91.176 28.006 91.2282 27.9221 91.332C27.8466 91.428 27.8088 91.6158 27.8088 91.896V97.428C27.8088 97.6758 27.834 97.8558 27.8843 97.968C27.9347 98.0802 28.0312 98.1558 28.1739 98.196C28.3165 98.2362 28.5431 98.256 28.8537 98.256C28.8789 98.256 28.8915 98.28 28.8915 98.328C28.8915 98.376 28.8789 98.4 28.8537 98.4C28.5516 98.4 28.3124 98.3958 28.1361 98.388L27.0912 98.376L26.0716 98.388C25.8953 98.3958 25.6519 98.4 25.3414 98.4C25.3162 98.4 25.3036 98.376 25.3036 98.328C25.3036 98.28 25.3162 98.256 25.3414 98.256C25.6435 98.256 25.8659 98.2362 26.0086 98.196C26.1597 98.1558 26.2604 98.0802 26.3107 97.968C26.3695 97.848 26.3989 97.668 26.3989 97.428V91.872C26.3989 91.6002 26.3611 91.416 26.2856 91.32C26.21 91.224 26.0547 91.176 25.8198 91.176ZM35.2057 94.164C36.0953 94.164 36.7751 94.332 37.2451 94.668C37.7151 94.9962 37.9501 95.484 37.9501 96.132C37.9501 96.5958 37.8284 97.0038 37.585 97.356C37.3416 97.6998 37.0017 97.968 36.5653 98.16C36.1373 98.352 35.6505 98.448 35.105 98.448C34.8868 98.448 34.6308 98.436 34.3371 98.412C34.228 98.412 34.0517 98.4078 33.8083 98.4C33.565 98.3838 33.351 98.376 33.1663 98.376L32.3606 98.388C32.1844 98.3958 31.941 98.4 31.6305 98.4C31.6053 98.4 31.5927 98.376 31.5927 98.328C31.5927 98.28 31.6053 98.256 31.6305 98.256C31.9159 98.2398 32.1131 98.22 32.2221 98.196C32.3397 98.1642 32.4194 98.0958 32.4613 97.992C32.5117 97.8798 32.5369 97.692 32.5369 97.428V91.872C32.5369 91.608 32.5159 91.4238 32.4739 91.32C32.432 91.2162 32.3522 91.1478 32.2347 91.116C32.1257 91.0842 31.9284 91.0602 31.6431 91.044C31.6263 91.044 31.6179 91.02 31.6179 90.972C31.6179 90.924 31.6263 90.9 31.6431 90.9L32.2725 90.912C32.625 90.9282 32.9439 90.936 33.2292 90.936C33.5062 90.936 33.8545 90.9282 34.2741 90.912L34.9917 90.9C35.0085 90.9 35.0169 90.924 35.0169 90.972C35.0169 91.02 35.0085 91.044 34.9917 91.044C34.6644 91.0602 34.4378 91.0842 34.3119 91.116C34.186 91.1478 34.0937 91.2198 34.0349 91.332C33.9762 91.4442 33.9468 91.632 33.9468 91.896V94.26C34.4168 94.1958 34.8365 94.164 35.2057 94.164ZM34.8784 98.148C35.4575 98.148 35.8687 98.004 36.1121 97.716C36.3555 97.4202 36.4772 96.96 36.4772 96.336C36.4772 95.6958 36.3471 95.232 36.0869 94.944C35.8351 94.6482 35.3987 94.5 34.7777 94.5C34.5595 94.5 34.2826 94.5198 33.9468 94.56V97.428C33.9468 97.668 34.0056 97.848 34.1231 97.968C34.2489 98.088 34.5007 98.148 34.8784 98.148ZM44.7291 90.768C45.6859 90.768 46.4748 90.9402 47.0958 91.284C47.7169 91.62 48.1701 92.0682 48.4554 92.628C48.7408 93.18 48.8835 93.7842 48.8835 94.44C48.8835 95.2398 48.6779 95.952 48.2666 96.576C47.8638 97.2 47.3224 97.6842 46.6427 98.028C45.9713 98.3718 45.2411 98.544 44.4522 98.544C44.1081 98.544 43.7095 98.5122 43.2563 98.448C42.8115 98.3838 42.4716 98.3082 42.2366 98.22C42.1695 98.1882 42.1233 98.1558 42.0981 98.124C42.0729 98.0838 42.0562 98.0202 42.0477 97.932L41.8841 96.264C41.8841 96.24 41.9051 96.228 41.947 96.228C41.9974 96.2202 42.0268 96.228 42.0351 96.252C42.2953 96.852 42.6856 97.332 43.2059 97.692C43.7346 98.052 44.3011 98.232 44.9054 98.232C45.6859 98.232 46.2776 97.92 46.6804 97.296C47.0917 96.672 47.2973 95.832 47.2973 94.776V94.692H45.8244C45.3964 94.692 45.0355 94.8078 44.7417 95.04C44.4564 95.2722 44.3137 95.556 44.3137 95.892C44.3137 95.9082 44.2885 95.916 44.2382 95.916C44.1963 95.916 44.1752 95.9082 44.1752 95.892L44.1878 94.668L44.1752 94.032C44.1585 93.7278 44.1501 93.4842 44.1501 93.3C44.1501 93.2838 44.1752 93.276 44.2256 93.276C44.2759 93.276 44.3011 93.2838 44.3011 93.3C44.3011 93.6042 44.448 93.8562 44.7417 94.056C45.0355 94.2558 45.4006 94.356 45.837 94.356H47.2847C47.226 93.3402 46.97 92.532 46.5168 91.932C46.0636 91.3242 45.4719 91.02 44.7417 91.02C44.213 91.02 43.7179 91.1922 43.2563 91.536C42.8031 91.8798 42.4044 92.3958 42.0603 93.084C42.0519 93.108 42.0268 93.1158 41.9848 93.108C41.9429 93.1002 41.9218 93.0882 41.9218 93.072L42.1107 91.44C42.1275 91.344 42.1443 91.2798 42.161 91.248C42.1778 91.2162 42.224 91.1838 42.2995 91.152C43.0716 90.8958 43.8815 90.768 44.7291 90.768ZM58.0159 98.256C58.0411 98.256 58.0537 98.28 58.0537 98.328C58.0537 98.376 58.0411 98.4 58.0159 98.4H56.0772C55.9681 98.4 55.8674 98.3682 55.7751 98.304C55.6912 98.2398 55.5401 98.076 55.3219 97.812C55.1037 97.5402 54.747 97.0638 54.2518 96.384L53.9119 95.928C53.6182 95.52 53.4 95.2362 53.2573 95.076C53.1146 94.908 52.9636 94.7922 52.8041 94.728C52.6531 94.656 52.4516 94.62 52.1999 94.62V97.428C52.1999 97.668 52.2208 97.848 52.2628 97.968C52.3132 98.0802 52.4055 98.1558 52.5398 98.196C52.674 98.2362 52.8839 98.256 53.1692 98.256C53.1944 98.256 53.207 98.28 53.207 98.328C53.207 98.376 53.1944 98.4 53.1692 98.4C52.8754 98.4 52.6405 98.3958 52.4642 98.388L51.4194 98.376L50.5004 98.388C50.3325 98.3958 50.1059 98.4 49.8206 98.4C49.7954 98.4 49.7828 98.376 49.7828 98.328C49.7828 98.28 49.7954 98.256 49.8206 98.256C50.1059 98.256 50.3158 98.2362 50.45 98.196C50.5843 98.1558 50.6766 98.0802 50.727 97.968C50.7773 97.848 50.8025 97.668 50.8025 97.428V91.872C50.8025 91.632 50.7773 91.4562 50.727 91.344C50.6766 91.2318 50.5843 91.1562 50.45 91.116C50.3241 91.068 50.1185 91.044 49.8332 91.044C49.808 91.044 49.7954 91.02 49.7954 90.972C49.7954 90.924 49.808 90.9 49.8332 90.9L50.5004 90.912C50.8864 90.9282 51.1928 90.936 51.4194 90.936C51.7047 90.936 52.0572 90.9282 52.4768 90.912L53.1692 90.9C53.1944 90.9 53.207 90.924 53.207 90.972C53.207 91.02 53.1944 91.044 53.1692 91.044C52.8923 91.044 52.6866 91.068 52.5524 91.116C52.4181 91.164 52.3258 91.248 52.2754 91.368C52.225 91.4802 52.1999 91.656 52.1999 91.896V94.416C52.4265 94.4082 52.7118 94.404 53.0559 94.404L54.3777 92.676C54.7218 92.22 54.8939 91.8402 54.8939 91.536C54.8939 91.3842 54.8477 91.2642 54.7554 91.176C54.6631 91.0878 54.5372 91.044 54.3777 91.044C54.3609 91.044 54.3526 91.02 54.3526 90.972C54.3526 90.924 54.3609 90.9 54.3777 90.9L54.9568 90.912C55.3261 90.9282 55.6534 90.936 55.9387 90.936C56.2661 90.936 56.606 90.9282 56.9584 90.912L57.4998 90.9C57.5249 90.9 57.5375 90.924 57.5375 90.972C57.5375 91.02 57.5249 91.044 57.4998 91.044C57.1305 91.044 56.715 91.1718 56.2535 91.428C55.7919 91.6842 55.4016 92.004 55.0827 92.388L53.3706 94.416C53.6979 94.4322 53.9665 94.4922 54.1763 94.596C54.3861 94.692 54.5917 94.848 54.7932 95.064C55.003 95.28 55.2967 95.64 55.6744 96.144L55.901 96.444C56.2535 96.9078 56.5262 97.2558 56.7193 97.488C56.9207 97.7202 57.1263 97.9038 57.3361 98.04C57.5459 98.1762 57.7725 98.2482 58.0159 98.256ZM62.0674 98.544C61.2869 98.544 60.5903 98.3718 59.9777 98.028C59.3734 97.6758 58.9034 97.2042 58.5677 96.612C58.2404 96.012 58.0768 95.3598 58.0768 94.656C58.0768 93.8322 58.295 93.1278 58.7314 92.544C59.1678 91.9518 59.7259 91.5078 60.4057 91.212C61.0939 90.9162 61.7947 90.768 62.508 90.768C63.3055 90.768 64.0061 90.948 64.6103 91.308C65.2146 91.6602 65.676 92.1282 65.9951 92.712C66.3224 93.2958 66.486 93.9162 66.486 94.572C66.486 95.2998 66.2846 95.9682 65.8818 96.576C65.4789 97.1838 64.9376 97.6638 64.2578 98.016C63.5862 98.3682 62.8563 98.544 62.0674 98.544ZM62.4829 98.244C62.953 98.244 63.3722 98.1162 63.7417 97.86C64.1194 97.596 64.4133 97.2162 64.6229 96.72C64.8325 96.216 64.9376 95.616 64.9376 94.92C64.9376 94.1838 64.8199 93.528 64.5851 92.952C64.3504 92.3682 64.0105 91.9122 63.5654 91.584C63.1204 91.2558 62.6004 91.092 62.0045 91.092C61.2408 91.092 60.6533 91.368 60.242 91.92C59.8308 92.4642 59.6252 93.228 59.6252 94.212C59.6252 94.9878 59.7469 95.6838 59.9903 96.3C60.2421 96.9078 60.5819 97.3842 61.01 97.728C61.4464 98.0718 61.9373 98.244 62.4829 98.244ZM76.1499 98.256C76.175 98.256 76.1876 98.28 76.1876 98.328C76.1876 98.376 76.175 98.4 76.1499 98.4C75.8641 98.4 75.6375 98.3958 75.4701 98.388L74.5511 98.376L73.5062 98.388C73.33 98.3958 73.0946 98.4 72.8012 98.4C72.7761 98.4 72.7635 98.376 72.7635 98.328C72.7635 98.28 72.7761 98.256 72.8012 98.256C73.0864 98.256 73.296 98.2362 73.4307 98.196C73.5648 98.1558 73.6529 98.0802 73.695 97.968C73.7454 97.848 73.7706 97.668 73.7706 97.428V92.016C73.7706 91.7442 73.758 91.5642 73.7328 91.476C73.7158 91.3878 73.6699 91.332 73.5943 91.308C73.5188 91.284 73.3677 91.272 73.1411 91.272H70.5604C70.3086 91.272 70.1406 91.284 70.0569 91.308C69.9725 91.332 69.9184 91.3878 69.8932 91.476C69.8762 91.5642 69.868 91.7442 69.868 92.016V97.428C69.868 97.6758 69.8888 97.8558 69.931 97.968C69.9813 98.0802 70.0695 98.1558 70.1953 98.196C70.3294 98.2362 70.5434 98.256 70.8374 98.256C70.8626 98.256 70.8751 98.28 70.8751 98.328C70.8751 98.376 70.8626 98.4 70.8374 98.4C70.5434 98.4 70.3086 98.3958 70.1324 98.388L69.0875 98.376L68.156 98.388C67.9879 98.3958 67.7613 98.4 67.4762 98.4C67.4592 98.4 67.451 98.376 67.451 98.328C67.451 98.28 67.4592 98.256 67.4762 98.256C67.7695 98.256 67.9835 98.2362 68.1182 98.196C68.2523 98.1558 68.3448 98.0802 68.3951 97.968C68.4455 97.848 68.4707 97.668 68.4707 97.428V92.016C68.4707 91.656 68.4077 91.404 68.2818 91.26C68.156 91.116 67.8954 91.044 67.5013 91.044C67.4762 91.044 67.4636 91.02 67.4636 90.972C67.4636 90.924 67.4762 90.9 67.5013 90.9C67.7865 90.9 68.0634 90.9042 68.3322 90.912C69.4564 90.9282 70.636 90.936 71.8697 90.936C72.9857 90.936 74.2741 90.924 75.7344 90.9H76.1499C76.175 90.9 76.1876 90.924 76.1876 90.972C76.1876 91.02 76.175 91.044 76.1499 91.044C75.7552 91.044 75.4908 91.116 75.3568 91.26C75.2309 91.404 75.1679 91.656 75.1679 92.016V97.428C75.1679 97.668 75.1931 97.848 75.2435 97.968C75.2938 98.0802 75.3857 98.1558 75.5204 98.196C75.6545 98.2362 75.8641 98.256 76.1499 98.256ZM85.5783 98.256C85.6204 98.256 85.6412 98.28 85.6412 98.328C85.6412 98.376 85.6204 98.4 85.5783 98.4C85.4102 98.4 85.1503 98.3922 84.7978 98.376C84.4283 98.3598 84.1639 98.352 84.0047 98.352C83.7951 98.352 83.5389 98.3598 83.2367 98.376C82.9516 98.3922 82.725 98.4 82.557 98.4C82.5236 98.4 82.5066 98.376 82.5066 98.328C82.5066 98.28 82.5236 98.256 82.557 98.256C82.7754 98.256 82.9302 98.2362 83.0227 98.196C83.1235 98.148 83.1738 98.0682 83.1738 97.956C83.1738 97.8198 83.0901 97.5918 82.922 97.272L81.6128 94.812H79.372L78.4782 96.696C78.3693 96.9282 78.3145 97.1442 78.3145 97.344C78.3145 97.632 78.4196 97.8558 78.6292 98.016C78.8476 98.1762 79.1372 98.256 79.4979 98.256C79.54 98.256 79.5608 98.28 79.5608 98.328C79.5608 98.376 79.54 98.4 79.4979 98.4C79.3468 98.4 79.1284 98.3922 78.8433 98.376C78.5241 98.3598 78.2472 98.352 78.0124 98.352C77.7858 98.352 77.5132 98.3598 77.1941 98.376C76.909 98.3922 76.678 98.4 76.5017 98.4C76.4684 98.4 76.4514 98.376 76.4514 98.328C76.4514 98.28 76.4684 98.256 76.5017 98.256C76.7365 98.256 76.9341 98.2122 77.0934 98.124C77.2526 98.028 77.4125 97.8642 77.5718 97.632C77.731 97.392 77.9199 97.0398 78.1383 96.576L80.8701 90.852C80.887 90.828 80.9248 90.816 80.9833 90.816C81.0507 90.816 81.0885 90.828 81.0966 90.852L84.2439 96.756C84.5378 97.3242 84.7808 97.716 84.974 97.932C85.1672 98.148 85.3687 98.256 85.5783 98.256ZM79.5356 94.476H81.4365L80.4294 92.58L79.5356 94.476ZM88.283 97.38C88.283 97.6362 88.3119 97.824 88.3711 97.944C88.4296 98.0562 88.5385 98.136 88.6984 98.184C88.8658 98.232 89.1302 98.256 89.4915 98.256C89.5167 98.256 89.5293 98.28 89.5293 98.328C89.5293 98.376 89.5167 98.4 89.4915 98.4C89.1472 98.4 88.8784 98.3958 88.6858 98.388L87.5906 98.376L86.6716 98.388C86.5036 98.3958 86.277 98.4 85.9918 98.4C85.9666 98.4 85.954 98.376 85.954 98.328C85.954 98.28 85.9666 98.256 85.9918 98.256C86.26 98.256 86.4532 98.2362 86.5709 98.196C86.6968 98.1558 86.7805 98.0802 86.8227 97.968C86.8642 97.848 86.8856 97.668 86.8856 97.428V91.872C86.8856 91.632 86.8642 91.4562 86.8227 91.344C86.7805 91.2318 86.6968 91.1562 86.5709 91.116C86.445 91.068 86.2518 91.044 85.9918 91.044C85.9666 91.044 85.954 91.02 85.954 90.972C85.954 90.924 85.9666 90.9 85.9918 90.9L86.659 90.912C87.0449 90.9282 87.3514 90.936 87.578 90.936C87.7794 90.936 88.0186 90.924 88.2956 90.9C88.4045 90.8922 88.5429 90.8838 88.711 90.876C88.8784 90.8682 89.0717 90.864 89.2901 90.864C90.1461 90.864 90.8215 91.0362 91.3169 91.38C91.8116 91.716 92.0596 92.2398 92.0596 92.952C92.0596 93.4482 91.9249 93.8682 91.6568 94.212C91.388 94.5558 91.0399 94.8162 90.6119 94.992C90.1921 95.1678 89.7597 95.256 89.3153 95.256C89.0887 95.256 88.891 95.2362 88.7236 95.196C88.7066 95.196 88.6984 95.1762 88.6984 95.136C88.6984 95.112 88.7022 95.088 88.711 95.064C88.7274 95.04 88.7444 95.0322 88.7614 95.04C88.8873 95.0718 89.0295 95.088 89.1894 95.088C89.5752 95.088 89.8944 94.9158 90.1461 94.572C90.4061 94.2282 90.5364 93.7398 90.5364 93.108C90.5364 92.4762 90.3935 91.9878 90.1084 91.644C89.8314 91.3002 89.4242 91.128 88.8873 91.128C88.6518 91.128 88.4926 91.1802 88.4089 91.284C88.3245 91.3878 88.283 91.5918 88.283 91.896V97.38ZM101.032 98.256C101.057 98.256 101.069 98.28 101.069 98.328C101.069 98.376 101.057 98.4 101.032 98.4H99.093C98.9841 98.4 98.8834 98.3682 98.7909 98.304C98.7072 98.2398 98.5561 98.076 98.3377 97.812C98.1199 97.5402 97.763 97.0638 97.2676 96.384L96.9277 95.928C96.6344 95.52 96.416 95.2362 96.2731 95.076C96.1309 94.908 95.9798 94.7922 95.8199 94.728C95.6689 94.656 95.4674 94.62 95.2157 94.62V97.428C95.2157 97.668 95.2371 97.848 95.2786 97.968C95.3289 98.0802 95.4215 98.1558 95.5555 98.196C95.6903 98.2362 95.8999 98.256 96.185 98.256C96.2102 98.256 96.2228 98.28 96.2228 98.328C96.2228 98.376 96.2102 98.4 96.185 98.4C95.8917 98.4 95.6563 98.3958 95.48 98.388L94.4352 98.376L93.5162 98.388C93.3487 98.3958 93.1221 98.4 92.8364 98.4C92.8112 98.4 92.7986 98.376 92.7986 98.328C92.7986 98.28 92.8112 98.256 92.8364 98.256C93.1221 98.256 93.3317 98.2362 93.4658 98.196C93.6005 98.1558 93.6924 98.0802 93.7428 97.968C93.7931 97.848 93.8183 97.668 93.8183 97.428V91.872C93.8183 91.632 93.7931 91.4562 93.7428 91.344C93.6924 91.2318 93.6005 91.1562 93.4658 91.116C93.3399 91.068 93.1347 91.044 92.849 91.044C92.8238 91.044 92.8112 91.02 92.8112 90.972C92.8112 90.924 92.8238 90.9 92.849 90.9L93.5162 90.912C93.9026 90.9282 94.2085 90.936 94.4352 90.936C94.7209 90.936 95.0734 90.9282 95.4926 90.912L96.185 90.9C96.2102 90.9 96.2228 90.924 96.2228 90.972C96.2228 91.02 96.2102 91.044 96.185 91.044C95.908 91.044 95.7028 91.068 95.5681 91.116C95.4341 91.164 95.3415 91.248 95.2912 91.368C95.2408 91.4802 95.2157 91.656 95.2157 91.896V94.416C95.4423 94.4082 95.728 94.404 96.0717 94.404L97.3935 92.676C97.7378 92.22 97.9097 91.8402 97.9097 91.536C97.9097 91.3842 97.8637 91.2642 97.7712 91.176C97.6793 91.0878 97.5534 91.044 97.3935 91.044C97.3772 91.044 97.3683 91.02 97.3683 90.972C97.3683 90.924 97.3772 90.9 97.3935 90.9L97.9726 90.912C98.3421 90.9282 98.6694 90.936 98.9545 90.936C99.2819 90.936 99.6217 90.9282 99.9742 90.912L100.516 90.9C100.541 90.9 100.553 90.924 100.553 90.972C100.553 91.02 100.541 91.044 100.516 91.044C100.147 91.044 99.7313 91.1718 99.2693 91.428C98.8079 91.6842 98.4176 92.004 98.0985 92.388L96.3864 94.416C96.7137 94.4322 96.9825 94.4922 97.1921 94.596C97.4023 94.692 97.6075 94.848 97.809 95.064C98.0192 95.28 98.3125 95.64 98.6902 96.144L98.9168 96.444C99.2693 96.9078 99.5424 97.2558 99.735 97.488C99.9365 97.7202 100.142 97.9038 100.352 98.04C100.562 98.1762 100.789 98.2482 101.032 98.256ZM105.083 98.544C104.303 98.544 103.606 98.3718 102.994 98.028C102.389 97.6758 101.919 97.2042 101.584 96.612C101.256 96.012 101.093 95.3598 101.093 94.656C101.093 93.8322 101.311 93.1278 101.747 92.544C102.184 91.9518 102.742 91.5078 103.422 91.212C104.11 90.9162 104.811 90.768 105.524 90.768C106.322 90.768 107.022 90.948 107.626 91.308C108.231 91.6602 108.692 92.1282 109.011 92.712C109.338 93.2958 109.502 93.9162 109.502 94.572C109.502 95.2998 109.301 95.9682 108.898 96.576C108.495 97.1838 107.954 97.6638 107.274 98.016C106.602 98.3682 105.872 98.544 105.083 98.544ZM105.499 98.244C105.969 98.244 106.388 98.1162 106.758 97.86C107.135 97.596 107.429 97.2162 107.639 96.72C107.849 96.216 107.954 95.616 107.954 94.92C107.954 94.1838 107.836 93.528 107.601 92.952C107.366 92.3682 107.026 91.9122 106.581 91.584C106.136 91.2558 105.617 91.092 105.02 91.092C104.257 91.092 103.669 91.368 103.258 91.92C102.847 92.4642 102.641 93.228 102.641 94.212C102.641 94.9878 102.763 95.6838 103.006 96.3C103.258 96.9078 103.598 97.3842 104.026 97.728C104.462 98.0718 104.953 98.244 105.499 98.244ZM114.646 94.188C115.351 94.2678 115.909 94.4922 116.32 94.86C116.74 95.2278 116.95 95.6838 116.95 96.228C116.95 96.6438 116.824 97.02 116.572 97.356C116.32 97.692 115.972 97.9602 115.527 98.16C115.083 98.352 114.587 98.448 114.042 98.448C113.807 98.448 113.538 98.436 113.236 98.412C113.119 98.4042 112.972 98.3958 112.795 98.388C112.628 98.3802 112.439 98.376 112.229 98.376L111.31 98.388C111.142 98.3958 110.916 98.4 110.63 98.4C110.605 98.4 110.592 98.376 110.592 98.328C110.592 98.28 110.605 98.256 110.63 98.256C110.874 98.256 111.058 98.2362 111.184 98.196C111.31 98.148 111.398 98.0682 111.448 97.956C111.507 97.836 111.536 97.6602 111.536 97.428V91.872C111.536 91.536 111.478 91.3158 111.36 91.212C111.243 91.0998 111.004 91.044 110.643 91.044C110.626 91.044 110.617 91.02 110.617 90.972C110.617 90.924 110.626 90.9 110.643 90.9L111.31 90.912C111.696 90.9282 112.002 90.936 112.229 90.936C112.464 90.936 112.707 90.924 112.959 90.9C113.043 90.8922 113.169 90.8838 113.337 90.876C113.505 90.8682 113.651 90.864 113.777 90.864C114.541 90.864 115.133 90.996 115.552 91.26C115.972 91.524 116.182 91.908 116.182 92.412C116.182 92.796 116.048 93.144 115.779 93.456C115.519 93.768 115.141 94.0122 114.646 94.188ZM113.588 91.128C113.345 91.128 113.177 91.1838 113.085 91.296C112.993 91.3998 112.946 91.6002 112.946 91.896V94.176L113.45 94.188C113.887 94.188 114.222 94.032 114.457 93.72C114.692 93.408 114.81 93.0078 114.81 92.52C114.81 92.064 114.705 91.7202 114.495 91.488C114.285 91.248 113.983 91.128 113.588 91.128ZM113.828 98.148C114.927 98.148 115.477 97.6038 115.477 96.516C115.477 95.8998 115.322 95.412 115.011 95.052C114.701 94.692 114.23 94.512 113.601 94.512C113.358 94.512 113.14 94.5198 112.946 94.536V97.428C112.946 97.692 113.001 97.8798 113.11 97.992C113.22 98.0958 113.459 98.148 113.828 98.148Z" fill="white"/>
<path id="Vector_20" d="M26.6026 84.3119C26.653 84.3119 26.6781 84.3599 26.6781 84.4559C26.6781 84.5519 26.653 84.5999 26.6026 84.5999H22.7253C22.5238 84.5999 22.3392 84.5357 22.1713 84.4079C22.0203 84.2801 21.7349 83.9441 21.3153 83.3999C20.9125 82.8401 20.2662 81.8957 19.3766 80.5679C18.6548 79.4801 18.0926 78.7037 17.6897 78.2399C17.2869 77.7761 16.8924 77.4641 16.5064 77.3039C16.1203 77.1281 15.6083 77.0399 14.9705 77.0399V82.6559C14.9705 83.1359 15.0125 83.4959 15.0964 83.7359C15.1971 83.9597 15.3817 84.1121 15.6503 84.1919C15.9189 84.2717 16.3469 84.3119 16.9344 84.3119C16.9679 84.3119 16.9847 84.3599 16.9847 84.4559C16.9847 84.5519 16.9679 84.5999 16.9344 84.5999C16.3133 84.5999 15.8266 84.5921 15.4741 84.5759L13.4599 84.5519L11.6219 84.5759C11.303 84.5921 10.8498 84.5999 10.2623 84.5999C10.2287 84.5999 10.212 84.5519 10.212 84.4559C10.212 84.3599 10.2287 84.3119 10.2623 84.3119C10.8498 84.3119 11.2778 84.2717 11.5464 84.1919C11.8149 84.1121 11.9996 83.9597 12.1003 83.7359C12.201 83.4959 12.2513 83.1359 12.2513 82.6559V77.0399C11.6135 77.0399 11.1015 77.1281 10.7155 77.3039C10.3294 77.4641 9.935 77.7761 9.53216 78.2399C9.12932 78.7037 8.56697 79.4801 7.84526 80.5679C6.9556 81.8957 6.30098 82.8401 5.88137 83.3999C5.47852 83.9441 5.19318 84.2801 5.02533 84.4079C4.87426 84.5357 4.69802 84.5999 4.49659 84.5999H0.619234C0.568879 84.5999 0.543701 84.5519 0.543701 84.4559C0.543701 84.3599 0.568879 84.3119 0.619234 84.3119C1.07243 84.2957 1.49206 84.1517 1.87812 83.8799C2.26417 83.6081 2.64184 83.2481 3.01111 82.7999C3.38039 82.3361 3.91751 81.6161 4.62248 80.6399L5.00015 80.0879C5.6212 79.2077 6.14153 78.5357 6.56119 78.0719C6.99759 77.6081 7.42561 77.2721 7.84526 77.0639C8.26484 76.8557 8.76839 76.7201 9.35592 76.6559L5.88137 72.5759C5.12604 71.6957 4.33714 71.0321 3.51467 70.5839C2.70898 70.1201 1.88651 69.8879 1.04725 69.8879C1.01369 69.8879 0.996899 69.8399 0.996899 69.7439C0.996899 69.6479 1.01369 69.5999 1.04725 69.5999L2.12989 69.6239C2.83487 69.6557 3.51467 69.6719 4.16929 69.6719C4.67284 69.6719 5.36103 69.6557 6.23385 69.6239L7.89561 69.5999C7.92916 69.5999 7.94597 69.6479 7.94597 69.7439C7.94597 69.8399 7.92916 69.8879 7.89561 69.8879C7.4088 69.8879 7.03957 69.9917 6.78779 70.1999C6.55276 70.3919 6.43531 70.6637 6.43531 71.0159C6.43531 71.6399 6.81297 72.4637 7.5683 73.4879L9.935 76.6079H10.5393C11.2274 76.6079 11.7981 76.6157 12.2513 76.6319V71.5439C12.2513 71.0639 12.201 70.7117 12.1003 70.4879C11.9996 70.2641 11.8149 70.1117 11.5464 70.0319C11.2778 69.9359 10.8581 69.8879 10.2875 69.8879C10.2539 69.8879 10.2371 69.8399 10.2371 69.7439C10.2371 69.6479 10.2539 69.5999 10.2875 69.5999L11.6723 69.6239C12.4108 69.6557 13.0067 69.6719 13.4599 69.6719C13.9802 69.6719 14.66 69.6557 15.4993 69.6239L16.9344 69.5999C16.9679 69.5999 16.9847 69.6479 16.9847 69.7439C16.9847 69.8399 16.9679 69.8879 16.9344 69.8879C16.3637 69.8879 15.944 69.9359 15.6755 70.0319C15.4069 70.1279 15.2223 70.2959 15.1216 70.5359C15.0209 70.7597 14.9705 71.1119 14.9705 71.5919V76.6319C15.4069 76.6157 15.9776 76.6079 16.6826 76.6079H17.2869L19.578 73.6079C20.3669 72.5681 20.7614 71.7041 20.7614 71.0159C20.7614 70.6637 20.6439 70.3919 20.4089 70.1999C20.1739 69.9917 19.8214 69.8879 19.3514 69.8879C19.3011 69.8879 19.2759 69.8399 19.2759 69.7439C19.2759 69.6479 19.3011 69.5999 19.3514 69.5999L20.988 69.6239C21.8608 69.6557 22.549 69.6719 23.0526 69.6719C23.7072 69.6719 24.387 69.6557 25.092 69.6239L26.1746 69.5999C26.2081 69.5999 26.225 69.6479 26.225 69.7439C26.225 69.8399 26.2081 69.8879 26.1746 69.8879C25.3353 69.8879 24.5044 70.1201 23.682 70.5839C22.8763 71.0321 22.0958 71.6957 21.3405 72.5759L17.866 76.6559C18.4702 76.7201 18.9738 76.8557 19.3766 77.0639C19.7962 77.2721 20.2159 77.6081 20.6355 78.0719C21.0551 78.5201 21.5838 79.1921 22.2217 80.0879L22.5994 80.6399C23.3043 81.6161 23.8414 82.3361 24.2107 82.7999C24.58 83.2481 24.9576 83.6081 25.3437 83.8799C25.7298 84.1517 26.1494 84.2957 26.6026 84.3119ZM42.2296 69.5999C42.28 69.5999 42.3052 69.6479 42.3052 69.7439C42.3052 69.8399 42.28 69.8879 42.2296 69.8879C41.7429 69.8879 41.231 70.1039 40.6938 70.5359C40.1735 70.9517 39.7622 71.4881 39.4601 72.1439L34.7267 82.6319C34.3575 83.4641 33.963 84.0479 33.5433 84.3839C33.1238 84.7199 32.5614 84.8879 31.8564 84.8879C31.1683 84.8879 30.6144 84.7439 30.1947 84.4559C29.7751 84.1679 29.5653 83.7917 29.5653 83.3279C29.5653 82.9919 29.6828 82.7039 29.9178 82.4639C30.1528 82.2077 30.4801 82.0799 30.8997 82.0799C31.3025 82.0799 31.5963 82.1837 31.7809 82.3919C31.9656 82.5839 32.125 82.8557 32.2593 83.2079C32.36 83.4317 32.4523 83.6081 32.5362 83.7359C32.6369 83.8481 32.7628 83.9039 32.9139 83.9039C33.0818 83.9039 33.2496 83.8157 33.4175 83.6399C33.5853 83.4479 33.7784 83.1197 33.9965 82.6559L34.3742 81.8159L28.8603 71.5919C28.5078 70.9517 28.1889 70.5119 27.9035 70.2719C27.635 70.0157 27.2574 69.8879 26.7706 69.8879C26.737 69.8879 26.7202 69.8399 26.7202 69.7439C26.7202 69.6479 26.737 69.5999 26.7706 69.5999C27.1398 69.5999 27.4 69.6077 27.5511 69.6239C28.0546 69.6557 28.7092 69.6719 29.5149 69.6719C30.7067 69.6719 31.6886 69.6557 32.4607 69.6239C32.6789 69.6077 32.9391 69.5999 33.2412 69.5999C33.2748 69.5999 33.2916 69.6479 33.2916 69.7439C33.2916 69.8399 33.2748 69.8879 33.2412 69.8879C32.2006 69.8879 31.6802 70.1357 31.6802 70.6319C31.6802 70.8239 31.7557 71.0639 31.9068 71.3519L35.7338 78.7919L38.7048 72.1439C38.8558 71.8079 38.9314 71.4959 38.9314 71.2079C38.9314 70.8077 38.7719 70.4879 38.453 70.2479C38.1509 70.0079 37.7228 69.8879 37.1689 69.8879C37.1354 69.8879 37.1186 69.8399 37.1186 69.7439C37.1186 69.6479 37.1354 69.5999 37.1689 69.5999L38.3019 69.6239C38.9398 69.6557 39.5104 69.6719 40.014 69.6719C40.3833 69.6719 40.7693 69.6557 41.1722 69.6239L42.2296 69.5999ZM47.5421 82.5599C47.5421 83.0717 47.6009 83.4479 47.7184 83.6879C47.8359 83.9117 48.0541 84.0719 48.373 84.1679C48.7087 84.2639 49.2375 84.3119 49.9592 84.3119C50.0095 84.3119 50.0347 84.3599 50.0347 84.4559C50.0347 84.5519 50.0095 84.5999 49.9592 84.5999C49.271 84.5999 48.7339 84.5921 48.3478 84.5759L46.1574 84.5519L44.3194 84.5759C43.9837 84.5921 43.5305 84.5999 42.9598 84.5999C42.9094 84.5999 42.8843 84.5519 42.8843 84.4559C42.8843 84.3599 42.9094 84.3119 42.9598 84.3119C43.497 84.3119 43.883 84.2717 44.118 84.1919C44.3697 84.1121 44.5376 83.9597 44.6215 83.7359C44.7055 83.4959 44.7474 83.1359 44.7474 82.6559V71.5439C44.7474 71.0639 44.7055 70.7117 44.6215 70.4879C44.5376 70.2641 44.3697 70.1117 44.118 70.0319C43.8662 69.9359 43.4802 69.8879 42.9598 69.8879C42.9094 69.8879 42.8843 69.8399 42.8843 69.7439C42.8843 69.6479 42.9094 69.5999 42.9598 69.5999L44.2942 69.6239C45.0663 69.6557 45.679 69.6719 46.1322 69.6719C46.535 69.6719 47.0134 69.6479 47.5673 69.5999C47.7855 69.5837 48.0625 69.5681 48.3982 69.5519C48.7339 69.5357 49.1199 69.5279 49.5563 69.5279C51.2684 69.5279 52.6196 69.8717 53.6099 70.5599C54.6003 71.2319 55.0954 72.2801 55.0954 73.7039C55.0954 74.6957 54.8269 75.5357 54.2897 76.2239C53.7526 76.9121 53.056 77.4317 52.2 77.7839C51.3608 78.1361 50.4963 78.3119 49.6067 78.3119C49.1535 78.3119 48.7591 78.2717 48.4233 78.1919C48.3898 78.1919 48.373 78.1517 48.373 78.0719C48.373 78.0239 48.3814 77.9759 48.3982 77.9279C48.4318 77.8799 48.4653 77.8637 48.4989 77.8799C48.7507 77.9441 49.036 77.9759 49.3549 77.9759C50.1271 77.9759 50.7649 77.6321 51.2684 76.9439C51.7888 76.2557 52.0489 75.2801 52.0489 74.0159C52.0489 72.7517 51.7636 71.7761 51.1929 71.0879C50.639 70.3997 49.8249 70.0559 48.7507 70.0559C48.2807 70.0559 47.9618 70.1597 47.7939 70.3679C47.6261 70.5761 47.5421 70.9841 47.5421 71.5919V82.5599ZM72.6218 84.3119C72.7062 84.3119 72.7477 84.3599 72.7477 84.4559C72.7477 84.5519 72.7062 84.5999 72.6218 84.5999C72.2864 84.5999 71.7658 84.5837 71.0608 84.5519C70.3225 84.5201 69.7938 84.5039 69.4746 84.5039C69.0554 84.5039 68.5431 84.5201 67.9388 84.5519C67.3685 84.5837 66.9153 84.5999 66.5792 84.5999C66.5125 84.5999 66.4785 84.5519 66.4785 84.4559C66.4785 84.3599 66.5125 84.3119 66.5792 84.3119C67.016 84.3119 67.3264 84.2717 67.5108 84.1919C67.7122 84.0959 67.8129 83.9357 67.8129 83.7119C67.8129 83.4401 67.6455 82.9841 67.3094 82.3439L64.6909 77.4239H60.2094L58.4218 81.1919C58.2036 81.6557 58.0945 82.0877 58.0945 82.4879C58.0945 83.0639 58.3043 83.5121 58.724 83.8319C59.1604 84.1517 59.7394 84.3119 60.4612 84.3119C60.5451 84.3119 60.5871 84.3599 60.5871 84.4559C60.5871 84.5519 60.5451 84.5999 60.4612 84.5999C60.1591 84.5999 59.7227 84.5837 59.152 84.5519C58.5142 84.5201 57.9603 84.5039 57.4903 84.5039C57.0371 84.5039 56.4915 84.5201 55.8537 84.5519C55.283 84.5837 54.8214 84.5999 54.4689 84.5999C54.4018 84.5999 54.3682 84.5519 54.3682 84.4559C54.3682 84.3599 54.4018 84.3119 54.4689 84.3119C54.9389 84.3119 55.3334 84.2237 55.6523 84.0479C55.9712 83.8559 56.2901 83.5277 56.609 83.0639C56.928 82.5839 57.3056 81.8801 57.742 80.9519L63.2054 69.5039C63.2394 69.4559 63.3149 69.4319 63.432 69.4319C63.5667 69.4319 63.6422 69.4559 63.6586 69.5039L69.953 81.3119C70.5409 82.4477 71.0275 83.2319 71.4133 83.6639C71.7998 84.0959 72.2026 84.3119 72.6218 84.3119ZM60.5368 76.7519H64.3384L62.3244 72.9599L60.5368 76.7519ZM81.6562 76.1759C83.0662 76.3361 84.1822 76.7837 85.0049 77.5199C85.8439 78.2561 86.2637 79.1681 86.2637 80.2559C86.2637 81.0881 86.012 81.8399 85.5084 82.5119C85.0049 83.1839 84.3081 83.7197 83.4187 84.1199C82.5293 84.5039 81.5385 84.6959 80.4477 84.6959C79.9775 84.6959 79.4406 84.6719 78.8363 84.6239C78.6015 84.6077 78.3076 84.5921 77.9551 84.5759C77.6196 84.5597 77.242 84.5519 76.8221 84.5519L74.9841 84.5759C74.6487 84.5921 74.1955 84.5999 73.6245 84.5999C73.5742 84.5999 73.549 84.5519 73.549 84.4559C73.549 84.3599 73.5742 84.3119 73.6245 84.3119C74.1111 84.3119 74.4806 84.2717 74.7324 84.1919C74.9841 84.0959 75.1604 83.9357 75.2611 83.7119C75.3788 83.4719 75.4373 83.1197 75.4373 82.6559V71.5439C75.4373 70.8719 75.3196 70.4321 75.0849 70.2239C74.8501 70.0001 74.3717 69.8879 73.6497 69.8879C73.6164 69.8879 73.5994 69.8399 73.5994 69.7439C73.5994 69.6479 73.6164 69.5999 73.6497 69.5999L74.9841 69.6239C75.7565 69.6557 76.3689 69.6719 76.8221 69.6719C77.2923 69.6719 77.7789 69.6479 78.2824 69.5999C78.4505 69.5837 78.7023 69.5681 79.0378 69.5519C79.3732 69.5357 79.6672 69.5279 79.919 69.5279C81.4466 69.5279 82.63 69.7919 83.469 70.3199C84.3081 70.8479 84.7279 71.6159 84.7279 72.6239C84.7279 73.3919 84.4591 74.0879 83.9222 74.7119C83.4017 75.3359 82.6463 75.8237 81.6562 76.1759ZM79.5413 70.0559C79.0547 70.0559 78.7186 70.1681 78.5342 70.3919C78.3498 70.6001 78.2572 70.9997 78.2572 71.5919V76.1519L79.2644 76.1759C80.1374 76.1759 80.8084 75.8639 81.2786 75.2399C81.7487 74.6159 81.9835 73.8161 81.9835 72.8399C81.9835 71.9279 81.7739 71.2397 81.3541 70.7759C80.9342 70.2959 80.33 70.0559 79.5413 70.0559ZM80.0197 84.0959C82.2183 84.0959 83.3179 83.0081 83.3179 80.8319C83.3179 79.6001 83.0076 78.6239 82.3864 77.9039C81.7651 77.1839 80.8254 76.8239 79.5665 76.8239C79.0799 76.8239 78.6431 76.8401 78.2572 76.8719V82.6559C78.2572 83.1839 78.3661 83.5601 78.5845 83.7839C78.803 83.9921 79.2813 84.0959 80.0197 84.0959ZM89.253 84.8879C88.7834 84.8879 88.4057 84.7841 88.1199 84.5759C87.8518 84.3677 87.7171 84.0641 87.7171 83.6639C87.7171 83.2799 87.8348 82.9997 88.0696 82.8239C88.3214 82.6481 88.6323 82.5599 89.0012 82.5599H89.5299C90.4363 82.5599 91.2086 82.0319 91.8463 80.9759C92.5009 79.9199 92.9881 78.5921 93.3066 76.9919C93.6257 75.3761 93.7849 73.7597 93.7849 72.1439C93.7849 71.3117 93.6175 70.7279 93.2814 70.3919C92.9459 70.0559 92.2913 69.8879 91.3175 69.8879C91.2672 69.8879 91.242 69.8399 91.242 69.7439C91.242 69.6479 91.2672 69.5999 91.3175 69.5999H104.057C104.091 69.5999 104.108 69.6479 104.108 69.7439C104.108 69.8399 104.091 69.8879 104.057 69.8879C103.487 69.8879 103.059 69.9359 102.773 70.0319C102.505 70.1117 102.32 70.2641 102.219 70.4879C102.136 70.7117 102.094 71.0639 102.094 71.5439V82.6559C102.094 83.1359 102.136 83.4959 102.219 83.7359C102.32 83.9597 102.505 84.1121 102.773 84.1919C103.042 84.2717 103.47 84.3119 104.057 84.3119C104.091 84.3119 104.108 84.3599 104.108 84.4559C104.108 84.5519 104.091 84.5999 104.057 84.5999C103.487 84.5999 103.034 84.5921 102.698 84.5759L100.835 84.5519L98.7701 84.5759C98.4346 84.5921 97.9562 84.5999 97.335 84.5999C97.3016 84.5999 97.2846 84.5519 97.2846 84.4559C97.2846 84.3599 97.3016 84.3119 97.335 84.3119C97.9229 84.3119 98.3421 84.2717 98.5939 84.1919C98.8626 84.1121 99.0389 83.9597 99.1226 83.7359C99.2233 83.5121 99.2737 83.1521 99.2737 82.6559V71.8319C99.2737 71.2877 99.2485 70.9277 99.1981 70.7519C99.1648 70.5761 99.0722 70.4639 98.9212 70.4159C98.7701 70.3679 98.468 70.3439 98.0148 70.3439H96.3531C95.8495 70.3439 95.4718 70.3841 95.2201 70.4639C94.9683 70.5437 94.7839 70.7117 94.6662 70.9679C94.5654 71.2079 94.5151 71.5997 94.5151 72.1439C94.5151 73.8401 94.364 75.6557 94.0619 77.5919C93.7767 79.5281 93.2398 81.2321 92.4505 82.7039C91.6788 84.1601 90.6125 84.8879 89.253 84.8879ZM122.979 84.3119C123.029 84.3119 123.055 84.3599 123.055 84.4559C123.055 84.5519 123.029 84.5999 122.979 84.5999C122.392 84.5999 121.922 84.5921 121.569 84.5759L119.63 84.5519L117.364 84.5759C117.062 84.5921 116.651 84.5999 116.131 84.5999C116.08 84.5999 116.055 84.5519 116.055 84.4559C116.055 84.3599 116.08 84.3119 116.131 84.3119C116.752 84.3119 117.205 84.2717 117.49 84.1919C117.775 84.1121 117.969 83.9597 118.069 83.7359C118.17 83.5121 118.22 83.1521 118.22 82.6559V73.5599L110.39 81.5519V82.6559C110.39 83.1359 110.441 83.4959 110.541 83.7359C110.642 83.9597 110.835 84.1121 111.12 84.1919C111.406 84.2717 111.859 84.3119 112.48 84.3119C112.513 84.3119 112.53 84.3599 112.53 84.4559C112.53 84.5519 112.513 84.5999 112.48 84.5999C111.893 84.5999 111.423 84.5921 111.07 84.5759L108.88 84.5519L106.991 84.5759C106.656 84.5921 106.194 84.5999 105.606 84.5999C105.573 84.5999 105.556 84.5519 105.556 84.4559C105.556 84.3599 105.573 84.3119 105.606 84.3119C106.194 84.3119 106.622 84.2717 106.891 84.1919C107.159 84.1121 107.344 83.9597 107.444 83.7359C107.545 83.4959 107.596 83.1359 107.596 82.6559V71.5439C107.596 71.0639 107.545 70.7117 107.444 70.4879C107.344 70.2641 107.159 70.1117 106.891 70.0319C106.639 69.9359 106.228 69.8879 105.657 69.8879C105.606 69.8879 105.581 69.8399 105.581 69.7439C105.581 69.6479 105.606 69.5999 105.657 69.5999L107.016 69.6239C107.789 69.6557 108.409 69.6719 108.88 69.6719C109.517 69.6719 110.256 69.6557 111.095 69.6239L112.48 69.5999C112.513 69.5999 112.53 69.6479 112.53 69.7439C112.53 69.8399 112.513 69.8879 112.48 69.8879C111.876 69.8879 111.431 69.9359 111.146 70.0319C110.86 70.1279 110.659 70.2959 110.541 70.5359C110.441 70.7597 110.39 71.1119 110.39 71.5919V80.5679L118.22 72.5999V71.5919C118.22 71.1119 118.17 70.7597 118.069 70.5359C117.969 70.2959 117.775 70.1279 117.49 70.0319C117.205 69.9359 116.752 69.8879 116.131 69.8879C116.08 69.8879 116.055 69.8399 116.055 69.7439C116.055 69.6479 116.08 69.5999 116.131 69.5999L117.364 69.6239C118.203 69.6557 118.959 69.6719 119.63 69.6719C120.084 69.6719 120.73 69.6557 121.569 69.6239L122.979 69.5999C123.029 69.5999 123.055 69.6479 123.055 69.7439C123.055 69.8399 123.029 69.8879 122.979 69.8879C122.408 69.8879 121.989 69.9359 121.72 70.0319C121.451 70.1117 121.267 70.2641 121.166 70.4879C121.066 70.7117 121.015 71.0639 121.015 71.5439V82.6559C121.015 83.1359 121.066 83.4959 121.166 83.7359C121.267 83.9597 121.451 84.1121 121.72 84.1919C121.989 84.2717 122.408 84.3119 122.979 84.3119Z" fill="white"/>
</g>
</svg>
