<svg width="69" height="69" viewBox="0 0 69 69" fill="none" xmlns="http://www.w3.org/2000/svg">
<path d="M69 34.5C69 53.5538 53.5538 69 34.5 69C15.4462 69 0 53.5538 0 34.5C0 15.4462 15.4462 0 34.5 0C53.5538 0 69 15.4462 69 34.5Z" fill="black"/>
<path fill-rule="evenodd" clip-rule="evenodd" d="M34.5 67.3688C52.6529 67.3688 67.3688 52.6529 67.3688 34.5C67.3688 16.3471 52.6529 1.63121 34.5 1.63121C16.3471 1.63121 1.63121 16.3471 1.63121 34.5C1.63121 52.6529 16.3471 67.3688 34.5 67.3688ZM34.5 69C53.5538 69 69 53.5538 69 34.5C69 15.4462 53.5538 0 34.5 0C15.4462 0 0 15.4462 0 34.5C0 53.5538 15.4462 69 34.5 69Z" fill="white"/>
<path fill-rule="evenodd" clip-rule="evenodd" d="M54.9442 13.3757L53.9151 14.4627L50.6375 11.9299L50.7536 11.7796L55.4173 10.4076L54.6521 9.81623C54.4967 9.69615 54.3802 9.61421 54.3049 9.56939C54.2288 9.5254 54.1499 9.4939 54.0671 9.47423C53.9758 9.44659 53.8453 9.45575 53.6727 9.5021C53.5008 9.5491 53.2418 9.64814 52.8965 9.79987L52.6975 9.64604L53.628 8.66401L56.6654 11.0111L56.5499 11.1607L51.8854 12.532L52.764 13.211C53.0395 13.4239 53.2352 13.5577 53.3512 13.6125C53.4681 13.6679 53.5715 13.6834 53.6618 13.662C53.8427 13.6206 54.0253 13.5632 54.2095 13.4896C54.3939 13.416 54.5773 13.3297 54.7594 13.2329L54.9442 13.3757Z" fill="white"/>
<path fill-rule="evenodd" clip-rule="evenodd" d="M51.9123 8.30804C51.8569 8.28547 51.7737 8.25635 51.6641 8.22263C51.554 8.18747 51.4527 8.17633 51.3597 8.18775C51.265 8.1958 51.1726 8.25094 51.0806 8.35454C50.9887 8.45816 50.8776 8.62862 50.7498 8.86602L49.9712 10.312C49.7422 10.7372 49.4141 11.0018 48.9868 11.1057C48.558 11.21 48.1072 11.1337 47.6324 10.878C47.0791 10.5801 46.7185 10.2243 46.55 9.81169C46.3821 9.39814 46.4184 8.96798 46.659 8.52121L47.7294 6.53318C47.7642 6.46869 47.7803 6.40743 47.7806 6.34855C47.781 6.28966 47.7555 6.22287 47.7059 6.14918C47.6708 6.10014 47.6234 6.04931 47.5618 5.99804C47.4998 5.94534 47.4492 5.90487 47.4083 5.87561L47.5201 5.6681L49.5576 6.76526L49.4459 6.97276C49.385 6.94478 49.3221 6.92055 49.2563 6.8972C49.191 6.87526 49.1212 6.857 49.0485 6.84435C48.9677 6.82861 48.9014 6.83989 48.8503 6.87871C48.7983 6.91704 48.7555 6.9675 48.7213 7.03106L47.6654 8.992C47.458 9.37708 47.3921 9.70328 47.4676 9.97058C47.5436 10.237 47.7421 10.4572 48.0655 10.6313C48.3833 10.8024 48.6842 10.8391 48.9697 10.7433C49.2543 10.6469 49.498 10.4116 49.7008 10.0349L50.4099 8.71799C50.5357 8.48432 50.614 8.30099 50.6446 8.16798C50.6743 8.03447 50.6705 7.9251 50.6327 7.83847C50.6067 7.77261 50.5441 7.69188 50.4439 7.59575C50.3438 7.49962 50.2716 7.43426 50.2289 7.40162L50.3437 7.18851L52.027 8.09492L51.9123 8.30804Z" fill="white"/>
<path fill-rule="evenodd" clip-rule="evenodd" d="M42.8235 9.05764C42.5699 8.96595 42.3455 8.8498 42.1482 8.70849C41.9514 8.56618 41.7924 8.42516 41.6717 8.28445L41.3961 8.41616L41.1475 8.32627L41.6521 6.81214L41.9027 6.90274C41.908 7.06607 41.9257 7.24181 41.9565 7.43132C41.9873 7.6208 42.0379 7.79938 42.1076 7.96568C42.1791 8.13941 42.2736 8.29325 42.3917 8.42853C42.5089 8.56346 42.6668 8.66684 42.8634 8.73795C43.129 8.83398 43.3551 8.84238 43.5434 8.76485C43.7311 8.68598 43.8612 8.54789 43.9323 8.35122C43.9908 8.1895 43.98 8.03208 43.9003 7.87795C43.8202 7.72482 43.6688 7.56284 43.4461 7.392C43.3015 7.2799 43.1685 7.17647 43.0469 7.08173C42.9264 6.98735 42.8133 6.8945 42.7094 6.8039C42.471 6.59237 42.3207 6.35856 42.2607 6.10317C42.1996 5.84744 42.2155 5.59129 42.3079 5.33573C42.3664 5.17401 42.4573 5.03191 42.5813 4.90743C42.706 4.78432 42.8562 4.68737 43.0343 4.61631C43.2031 4.55206 43.4007 4.52078 43.6266 4.52347C43.8525 4.52614 44.0842 4.56926 44.3198 4.65446C44.5504 4.73785 44.7544 4.84776 44.932 4.98422C45.1099 5.11967 45.2445 5.24059 45.3359 5.34699L45.5781 5.23591L45.8327 5.32797L45.3437 6.75184L45.0932 6.66123C45.0895 6.48719 45.0766 6.30756 45.0555 6.1193C45.034 5.93206 44.9978 5.76997 44.9482 5.63239C44.8942 5.48528 44.8158 5.35537 44.7156 5.24235C44.615 5.13036 44.4815 5.0437 44.3138 4.98306C44.1032 4.90689 43.9098 4.90469 43.7331 4.97512C43.5564 5.04554 43.436 5.16909 43.3729 5.3438C43.3126 5.51052 43.3217 5.66622 43.4003 5.81427C43.4782 5.96097 43.6253 6.11915 43.842 6.28781C43.9691 6.38908 44.0981 6.49106 44.2302 6.59412C44.3636 6.69655 44.4804 6.79185 44.581 6.879C44.8238 7.09097 44.9842 7.31833 45.0623 7.56443C45.1397 7.80916 45.1273 8.07446 45.0245 8.35898C44.9595 8.53867 44.8547 8.69721 44.7102 8.83459C44.5657 8.97199 44.4027 9.06995 44.2196 9.13015C44.0194 9.19662 43.8048 9.22512 43.576 9.218C43.3475 9.20988 43.097 9.15655 42.8235 9.05764Z" fill="white"/>
<path fill-rule="evenodd" clip-rule="evenodd" d="M41.0476 5.29352L40.81 5.26856C40.7654 5.07387 40.684 4.86252 40.5651 4.63333C40.4472 4.40425 40.3285 4.27437 40.2109 4.246C40.1452 4.23055 40.0647 4.21462 39.9683 4.19809C39.8718 4.18153 39.7886 4.17066 39.7189 4.16333L39.5732 4.14802L39.2115 7.58972C39.2036 7.66467 39.2105 7.73158 39.231 7.7903C39.2524 7.8502 39.3006 7.90009 39.3751 7.94209C39.4208 7.96502 39.4927 7.9918 39.5898 8.02229C39.6881 8.05183 39.7721 8.0756 39.841 8.0903L39.8156 8.33208L37.3694 8.07498L37.3948 7.83321C37.4545 7.83414 37.5399 7.83352 37.6488 7.83429C37.7587 7.83403 37.8341 7.82815 37.8749 7.81536C37.9586 7.79107 38.0171 7.75239 38.0493 7.69922C38.0827 7.64615 38.1022 7.58202 38.1102 7.506L38.4753 4.03264L38.3306 4.01744C38.2599 4.01 38.1763 4.00335 38.0785 3.99947C37.9807 3.99559 37.8986 3.99444 37.8323 3.996C37.7113 3.99931 37.5682 4.10168 37.4042 4.30113C37.2402 4.50057 37.1167 4.69039 37.0336 4.87166L36.795 4.84658L36.927 3.59131L41.1795 4.03826L41.0476 5.29352Z" fill="white"/>
<path fill-rule="evenodd" clip-rule="evenodd" d="M35.8325 3.76488C35.7747 3.77531 35.6929 3.79273 35.5861 3.81723C35.4802 3.8406 35.3856 3.88764 35.3033 3.95832C35.231 4.01977 35.1826 4.11893 35.1603 4.2567C35.138 4.39447 35.1361 4.59466 35.1544 4.85728L35.3744 8.00242L34.8216 8.04107L31.8409 4.8304L31.9854 6.89645C32.0033 7.15272 32.0339 7.34638 32.0782 7.47736C32.1214 7.60843 32.1833 7.702 32.2639 7.75915C32.3232 7.80075 32.4149 7.83478 32.5392 7.86121C32.6634 7.88764 32.7625 7.90518 32.8364 7.91172L32.8534 8.15423L30.961 8.28655L30.944 8.04405C31.0241 8.03313 31.1152 8.01079 31.2184 7.98017C31.3205 7.94961 31.4058 7.90641 31.4722 7.85175C31.5485 7.78576 31.5983 7.69183 31.6195 7.56903C31.6407 7.44518 31.6423 7.24074 31.6224 6.95588L31.4766 4.87078C31.4694 4.76806 31.4456 4.67076 31.4074 4.58086C31.3692 4.49094 31.3129 4.41613 31.2404 4.35416C31.1635 4.2893 31.076 4.24008 30.9789 4.20538C30.8818 4.17172 30.7727 4.14849 30.6514 4.13357L30.6341 3.88577L32.2903 3.76995L34.9066 6.57937L34.7902 4.91362C34.7717 4.64888 34.7399 4.45317 34.6959 4.32642C34.6519 4.19967 34.5891 4.10828 34.5085 4.05114C34.4448 4.00771 34.353 3.97262 34.2331 3.94697C34.1132 3.9213 34.0162 3.90466 33.9422 3.89706L33.9254 3.65561L35.8156 3.52344L35.8325 3.76488Z" fill="white"/>
<path fill-rule="evenodd" clip-rule="evenodd" d="M27.6886 6.99559L26.7453 5.55482L26.4419 7.24677L27.6886 6.99559ZM30.313 8.28823L27.9559 8.76314L27.9079 8.52483C28.0167 8.49532 28.1418 8.44955 28.2831 8.38751C28.4256 8.32632 28.4915 8.27188 28.4823 8.22609C28.4789 8.20945 28.4741 8.19093 28.467 8.17179C28.4597 8.1516 28.4459 8.12621 28.4244 8.09481L27.8743 7.27222L26.381 7.57309C26.3634 7.66326 26.3446 7.76883 26.3256 7.88961C26.3064 8.00934 26.2901 8.11658 26.2776 8.21008C26.2619 8.33127 26.2556 8.41809 26.2586 8.47055C26.2616 8.52301 26.2656 8.55902 26.2698 8.57984C26.2828 8.64435 26.3428 8.68965 26.4509 8.71552C26.5589 8.74139 26.729 8.74177 26.963 8.71521L27.011 8.95352L25.2367 9.311L25.1887 9.07269C25.2547 9.05615 25.3283 9.0294 25.4093 8.99576C25.49 8.96109 25.5518 8.92374 25.5946 8.88371C25.668 8.81803 25.7266 8.74341 25.7706 8.6609C25.8136 8.57861 25.8455 8.48446 25.8643 8.37888C25.9844 7.76019 26.1053 7.14024 26.2271 6.51904C26.349 5.89889 26.4827 5.21356 26.6297 4.4649L27.2395 4.34204C27.8356 5.24203 28.3038 5.95336 28.6443 6.47709C28.9846 6.99978 29.2712 7.43365 29.5047 7.77537C29.5441 7.83132 29.5885 7.87977 29.6392 7.92154C29.6896 7.96227 29.7575 7.99839 29.8415 8.02805C29.9052 8.04878 29.9758 8.06054 30.0549 8.06085C30.1332 8.0624 30.2029 8.05917 30.265 8.04993L30.313 8.28823Z" fill="white"/>
<path fill-rule="evenodd" clip-rule="evenodd" d="M21.6311 7.05733C21.5202 6.785 21.3622 6.61665 21.1586 6.55288C20.954 6.48949 20.7111 6.51506 20.4289 6.62997L20.2018 6.72247L20.8989 8.43412L21.1171 8.34524C21.3993 8.23032 21.5881 8.06632 21.6834 7.85558C21.7787 7.64484 21.7616 7.37783 21.6311 7.05733ZM24.8301 9.29743L23.263 9.93567C22.8226 9.63129 22.463 9.39265 22.1839 9.21974C21.9039 9.04722 21.565 8.85398 21.1673 8.64002L21.009 8.70448L21.5147 9.9462C21.5427 10.015 21.5795 10.0688 21.6243 10.1056C21.6695 10.1433 21.736 10.1632 21.822 10.166C21.8648 10.167 21.9282 10.1595 22.0127 10.1446C22.0968 10.1287 22.1684 10.1132 22.2265 10.0953L22.3182 10.3205L20.1376 11.2085L20.0459 10.9834C20.0999 10.9557 20.169 10.9172 20.2565 10.8701C20.3435 10.8221 20.4032 10.7829 20.4351 10.7515C20.4955 10.6914 20.5286 10.6321 20.534 10.5749C20.5407 10.5182 20.5287 10.4521 20.499 10.3793L19.3251 7.49676C19.2966 7.42695 19.2626 7.37433 19.2221 7.33693C19.1827 7.29912 19.1151 7.27964 19.0205 7.27807C18.9491 7.27732 18.868 7.28632 18.7772 7.30265C18.6868 7.31997 18.6158 7.33401 18.5644 7.34577L18.4731 7.1216L20.7658 6.18788C21.279 5.97887 21.7007 5.89994 22.0315 5.95209C22.3631 6.00383 22.5948 6.19262 22.7269 6.51705C22.8434 6.80315 22.8545 7.06684 22.7612 7.30772C22.6679 7.5486 22.4734 7.78598 22.1768 8.02024C22.3765 8.1361 22.6085 8.26968 22.8734 8.42198C23.1374 8.57469 23.4108 8.72811 23.694 8.88327C23.7838 8.93494 23.9027 8.99314 24.049 9.05965C24.1962 9.12575 24.3139 9.15577 24.403 9.14929C24.4524 9.14406 24.5133 9.13303 24.5861 9.11483C24.6579 9.09704 24.7085 9.08332 24.7384 9.07229L24.8301 9.29743Z" fill="white"/>
<path fill-rule="evenodd" clip-rule="evenodd" d="M17.7416 8.64264L17.5657 8.80571C17.4044 8.7207 17.2024 8.65892 16.959 8.61961C16.7149 8.58101 16.5368 8.60128 16.4241 8.68111C16.3724 8.71745 16.3066 8.76828 16.2267 8.8336C16.1461 8.89964 16.0739 8.96223 16.01 9.0214L15.5062 9.48822L16.6838 10.759L17.0053 10.461C17.0964 10.3766 17.1657 10.2936 17.2139 10.2113C17.2614 10.1282 17.2867 10.0368 17.2898 9.93548C17.2926 9.86198 17.27 9.76421 17.2236 9.64227C17.1771 9.5203 17.1282 9.42379 17.0761 9.35345L17.2497 9.19255L18.5116 10.5544L18.338 10.7153C18.2691 10.6519 18.1677 10.5909 18.0363 10.5303C17.9041 10.4704 17.8085 10.4375 17.7501 10.4323C17.661 10.4251 17.571 10.4405 17.4808 10.4806C17.3907 10.5207 17.2981 10.5848 17.2023 10.6736L16.8807 10.9715L17.8743 12.0438C17.9248 12.0983 17.9782 12.1356 18.0345 12.1558C18.0908 12.176 18.1594 12.1703 18.2394 12.141C18.2859 12.124 18.3433 12.0939 18.4126 12.0515C18.4811 12.0083 18.5481 11.9635 18.6108 11.9156L18.776 12.0939L17.0311 13.7108L16.8658 13.5325C16.9066 13.4875 16.9585 13.4263 17.0245 13.3507C17.089 13.2751 17.131 13.2173 17.1483 13.1782C17.1833 13.1066 17.194 13.0417 17.1805 12.9833C17.1661 12.9257 17.1316 12.8666 17.0767 12.8074L14.9612 10.5244C14.9129 10.4722 14.8609 10.4364 14.8062 10.4148C14.7513 10.3947 14.6821 10.3981 14.5991 10.4272C14.539 10.4482 14.4678 10.4838 14.3832 10.5332C14.2995 10.5833 14.2371 10.6222 14.1962 10.6515L14.0317 10.4739L16.9407 7.77834L17.7416 8.64264Z" fill="white"/>
<path d="M58.2666 34.4837C58.2666 47.6186 47.6186 58.2666 34.4837 58.2666C21.3487 58.2666 10.7007 47.6186 10.7007 34.4837C10.7007 21.3487 21.3487 10.7007 34.4837 10.7007C47.6186 10.7007 58.2666 21.3487 58.2666 34.4837Z" fill="#004E3A"/>
<path d="M24.5378 18.3723C24.4861 18.1138 24.4215 17.8778 24.3439 17.6645C24.2663 17.4512 24.1694 17.267 24.053 17.1119C23.9431 16.9567 23.8139 16.8371 23.6652 16.7531C23.523 16.6691 23.3614 16.6271 23.1804 16.6271C22.8055 16.6271 22.5146 16.7046 22.3078 16.8598C22.1009 17.0084 21.9975 17.2056 21.9975 17.4512C21.9975 17.6257 22.033 17.7679 22.1042 17.8778C22.1753 17.9877 22.2787 18.0879 22.4144 18.1784C22.5502 18.2624 22.715 18.3432 22.9089 18.4208C23.1093 18.4919 23.3323 18.5759 23.5779 18.6729C23.8559 18.7828 24.1112 18.8927 24.3439 19.0026C24.5766 19.1125 24.7738 19.245 24.9354 19.4001C25.1034 19.5552 25.2327 19.7427 25.3232 19.9625C25.4137 20.1822 25.4589 20.4602 25.4589 20.7963C25.4589 21.1195 25.404 21.4072 25.2941 21.6593C25.1907 21.9113 25.0388 22.1279 24.8384 22.3089C24.6445 22.4834 24.4086 22.6159 24.1306 22.7064C23.8591 22.8034 23.5585 22.8519 23.2289 22.8519C22.9897 22.8519 22.757 22.8228 22.5308 22.7646C22.311 22.7064 22.1171 22.603 21.949 22.4543C21.8197 22.5448 21.684 22.6256 21.5418 22.6967C21.406 22.7678 21.2638 22.826 21.1152 22.8712C21.0376 22.645 20.9827 22.4188 20.9503 22.1925C20.918 21.9598 20.9019 21.7207 20.9019 21.475C20.9019 21.307 20.9051 21.1421 20.9116 20.9805C20.9245 20.8189 20.9439 20.6541 20.9697 20.486H21.6C21.6 20.6994 21.6258 20.9159 21.6775 21.1357C21.7357 21.3554 21.8262 21.5591 21.949 21.7465C22.0718 21.9275 22.2302 22.0762 22.4241 22.1925C22.6245 22.3089 22.8637 22.3671 23.1416 22.3671C23.3937 22.3671 23.6038 22.3412 23.7719 22.2895C23.9464 22.2313 24.0854 22.1537 24.1888 22.0568C24.2987 21.9598 24.3762 21.8499 24.4215 21.7271C24.4732 21.5978 24.499 21.4621 24.499 21.3199C24.499 21.0937 24.4409 20.9062 24.3245 20.7575C24.2082 20.6024 24.0175 20.4796 23.7525 20.3891C23.3582 20.2533 22.9962 20.1208 22.6665 19.9916C22.3369 19.8558 22.0492 19.6974 21.8036 19.5164C21.5644 19.329 21.377 19.1092 21.2412 18.8571C21.1055 18.605 21.0376 18.2948 21.0376 17.9263C21.0376 17.6484 21.0893 17.3995 21.1927 17.1797C21.3026 16.9535 21.4481 16.7628 21.6291 16.6077C21.81 16.4525 22.0201 16.3362 22.2593 16.2586C22.5049 16.1746 22.7635 16.1326 23.035 16.1326C23.2741 16.1326 23.5036 16.1778 23.7234 16.2683C23.9431 16.3523 24.1274 16.4978 24.276 16.7046C24.3471 16.5753 24.4506 16.4687 24.5863 16.3847C24.7221 16.3006 24.8578 16.2392 24.9935 16.2004C25.0905 16.5172 25.1487 16.8727 25.1681 17.267C25.1939 17.6548 25.2068 18.0233 25.2068 18.3723H24.5378Z" fill="white"/>
<path d="M30.4267 22.7064V22.2992C31.0602 22.2992 31.3769 22.102 31.3769 21.7077V19.7492C31.3123 19.7168 31.2218 19.691 31.1055 19.6716C30.9956 19.6457 30.8631 19.6328 30.7079 19.6328H29.5444C29.3052 19.6328 29.0952 19.6716 28.9142 19.7492V21.7077C28.9142 22.102 29.2051 22.2992 29.7868 22.2992V22.7064H26.3448V22.2992C26.9976 22.2992 27.324 22.102 27.324 21.7077V17.4706C27.324 16.96 26.9976 16.7046 26.3448 16.7046V16.278H29.7868V16.7046C29.2051 16.7046 28.9142 16.96 28.9142 17.4706V19.051C29.0111 19.0834 29.1081 19.106 29.2051 19.1189C29.302 19.1318 29.4151 19.1383 29.5444 19.1383H30.7079C31.0441 19.1383 31.2671 19.1125 31.3769 19.0607V17.4706C31.3769 16.96 31.0602 16.7046 30.4267 16.7046V16.278H33.8494V16.7046C33.2612 16.7046 32.9671 16.96 32.9671 17.4706V21.7077C32.9671 22.102 33.2612 22.2992 33.8494 22.2992V22.7064H30.4267Z" fill="white"/>
<path d="M38.1364 22.3671C38.479 22.3671 38.7601 22.296 38.9799 22.1537C39.1997 22.0051 39.371 21.8047 39.4938 21.5526C39.6231 21.294 39.7103 20.9935 39.7556 20.6509C39.8073 20.3018 39.8332 19.9301 39.8332 19.5358C39.8332 19.1674 39.8073 18.8086 39.7556 18.4596C39.7103 18.1105 39.6199 17.8003 39.4841 17.5288C39.3548 17.2573 39.1706 17.0408 38.9314 16.8792C38.6923 16.7111 38.3788 16.6271 37.9909 16.6271C37.6354 16.6271 37.351 16.7046 37.1377 16.8598C36.9244 17.0149 36.7596 17.225 36.6432 17.49C36.5333 17.7486 36.459 18.0491 36.4202 18.3917C36.3879 18.7278 36.3717 19.0834 36.3717 19.4583C36.3717 19.8655 36.3976 20.2469 36.4493 20.6024C36.501 20.9579 36.5915 21.2682 36.7208 21.5332C36.8565 21.7918 37.0375 21.9954 37.2637 22.144C37.49 22.2927 37.7809 22.3671 38.1364 22.3671ZM41.4912 19.4583C41.4912 20.0077 41.4039 20.4925 41.2294 20.9127C41.0548 21.3328 40.8125 21.6883 40.5022 21.9792C40.1984 22.2636 39.8364 22.4802 39.4162 22.6288C39.0025 22.7775 38.5501 22.8519 38.0588 22.8519C37.5934 22.8519 37.1571 22.7904 36.7499 22.6676C36.3426 22.5383 35.9871 22.3412 35.6833 22.0762C35.3795 21.8047 35.1403 21.4589 34.9658 21.0387C34.7913 20.6186 34.704 20.1176 34.704 19.5358C34.704 18.9476 34.788 18.4434 34.9561 18.0233C35.1242 17.5967 35.3569 17.2476 35.6542 16.9761C35.958 16.6982 36.3135 16.4946 36.7208 16.3653C37.1345 16.236 37.5805 16.1714 38.0588 16.1714C38.5307 16.1714 38.9735 16.2425 39.3871 16.3847C39.8073 16.5204 40.1725 16.7273 40.4828 17.0052C40.7931 17.2767 41.0387 17.6193 41.2197 18.033C41.4007 18.4402 41.4912 18.9153 41.4912 19.4583Z" fill="white"/>
<path d="M42.414 22.7064V22.2992C42.9893 22.2992 43.277 22.0891 43.277 21.6689V17.2088C43.277 16.8727 42.9764 16.7046 42.3752 16.7046V16.278H44.5665C44.8121 16.278 45.0158 16.2748 45.1774 16.2683C45.3454 16.2554 45.5361 16.2489 45.7494 16.2489C46.6027 16.2489 47.2264 16.4073 47.6207 16.724C48.015 17.0343 48.2122 17.5126 48.2122 18.159C48.2122 18.4046 48.1669 18.6374 48.0764 18.8571C47.9924 19.0769 47.8502 19.2676 47.6498 19.4292C47.4494 19.5908 47.1909 19.7201 46.8741 19.817C46.5574 19.9075 46.1696 19.9528 45.7106 19.9528C45.5167 19.9528 45.3551 19.9463 45.2258 19.9334C45.103 19.9204 44.9834 19.9011 44.8671 19.8752V21.6302C44.8671 21.8435 44.9479 22.0083 45.1095 22.1247C45.2711 22.241 45.507 22.2992 45.8173 22.2992V22.7064H42.414ZM44.8671 19.3807C44.9964 19.413 45.1256 19.4357 45.2549 19.4486C45.3842 19.4615 45.5361 19.468 45.7106 19.468C45.911 19.468 46.0662 19.4324 46.176 19.3613C46.2924 19.2837 46.3764 19.1836 46.4281 19.0607C46.4863 18.9379 46.5219 18.7957 46.5348 18.6341C46.5477 18.4661 46.5542 18.2948 46.5542 18.1202C46.5542 17.8811 46.5348 17.6742 46.496 17.4997C46.4572 17.3187 46.3861 17.17 46.2827 17.0537C46.1857 16.9373 46.05 16.8501 45.8755 16.7919C45.7009 16.7337 45.4812 16.7046 45.2161 16.7046C44.9834 16.7046 44.8671 16.8501 44.8671 17.1409V19.3807Z" fill="white"/>
<path fill-rule="evenodd" clip-rule="evenodd" d="M59.9424 58.4427C61.0692 59.8069 58.9103 62.0133 57.5224 60.8982L2.74894 8.2063C2.67209 8.13236 2.66934 8.01024 2.7428 7.93292L-nan -nanL2.7428 7.93292C2.81481 7.85712 2.93395 7.85205 3.01215 7.92145L59.9424 58.4427Z" fill="#5F160F"/>
<path fill-rule="evenodd" clip-rule="evenodd" d="M2.94765 7.994C2.90854 7.9593 2.84896 7.96184 2.81294 7.99974C2.77621 8.03841 2.77758 8.09948 2.81602 8.13646L57.5863 60.8254C58.225 61.3354 59.0531 61.0954 59.6061 60.5323C60.1586 59.9698 60.3848 59.1375 59.8722 58.5102L2.94765 7.994ZM2.67236 7.86617C2.78037 7.75248 2.95907 7.74487 3.07636 7.84896L60.0122 58.3752L60.017 58.381C60.6251 59.1172 60.335 60.0669 59.7444 60.6682C59.1537 61.2696 58.2103 61.5755 57.4615 60.9739L57.4581 60.9712L2.68158 8.27621C2.5663 8.16531 2.56218 7.98214 2.67236 7.86617Z" fill="white"/>
<path fill-rule="evenodd" clip-rule="evenodd" d="M57.2149 56.5168L55.3615 54.8594C55.2288 54.7408 55.0234 54.749 54.903 54.8797L53.6862 56.2008C53.5657 56.3316 53.574 56.5374 53.7066 56.656L55.5601 58.3134C55.6927 58.432 55.8981 58.4238 56.0186 58.2931L57.2354 56.972C57.3558 56.8412 57.3475 56.6354 57.2149 56.5168Z" fill="white"/>
<path fill-rule="evenodd" clip-rule="evenodd" d="M55.4263 54.7872C55.4263 54.7872 55.4263 54.7872 55.4263 54.7872L57.2797 56.4445C57.4534 56.5998 57.4634 56.8678 57.3069 57.0377L57.3069 57.0377L56.0901 58.3588C55.9331 58.5293 55.667 58.5389 55.4957 58.3857L53.6422 56.7283C53.6422 56.7283 53.6422 56.7283 53.6422 56.7283C53.4686 56.5731 53.4586 56.3051 53.6151 56.1352C53.6151 56.1352 53.6151 56.1352 53.6151 56.1352L54.8319 54.8141L54.8319 54.8141C54.9889 54.6436 55.2549 54.6339 55.4263 54.7872ZM54.9745 54.9455C54.9745 54.9455 54.9745 54.9455 54.9745 54.9455L53.7577 56.2665L53.7577 56.2665C53.6733 56.3582 53.6799 56.5019 53.7715 56.5838L53.7715 56.5838L55.6249 58.2411L55.5631 58.3103L55.6249 58.2411C55.7188 58.3251 55.8636 58.3184 55.9475 58.2274L57.1643 56.9063C57.2487 56.8147 57.2421 56.671 57.1505 56.5891L57.2151 56.5168L57.1505 56.5891L55.297 54.9317L55.297 54.9317C55.2032 54.8478 55.0584 54.8544 54.9745 54.9455Z" fill="#1B1918"/>
<path fill-rule="evenodd" clip-rule="evenodd" d="M58.6186 57.7389L57.9007 57.0791C57.7693 56.9584 57.5637 56.9676 57.4436 57.0996L56.2305 58.4328C56.1104 58.5647 56.1196 58.7715 56.2509 58.8921L56.9689 59.552C57.1002 59.6727 57.3059 59.6635 57.426 59.5315L58.639 58.1983C58.7591 58.0663 58.7499 57.8596 58.6186 57.7389Z" fill="white"/>
<path fill-rule="evenodd" clip-rule="evenodd" d="M57.3718 57.0343C57.528 56.8626 57.7953 56.8505 57.9662 57.0076L58.6841 57.6675L58.6841 57.6675C58.8548 57.8243 58.8666 58.0921 58.7107 58.2635L58.7107 58.2635L57.4976 59.5967L57.4259 59.5314L57.4976 59.5967C57.3414 59.7683 57.0741 59.7804 56.9032 59.6233L56.9688 59.5519L56.9032 59.6233L56.1852 58.9634L56.1852 58.9634C56.0146 58.8066 56.0027 58.5388 56.1587 58.3674C56.1587 58.3674 56.1587 58.3674 56.1587 58.3674L57.3718 57.0343L57.3718 57.0343ZM56.2304 58.4327L56.2304 58.4327L56.2304 58.4327C57.5152 57.1648 57.5152 57.1648 57.5152 57.1648L57.5152 57.1648L56.3021 58.4979C56.2245 58.7361 56.2179 58.5905 56.3021 58.4979C56.3164 58.8207 56.3164 58.8207 56.3164 58.8207L56.3165 58.8207C57.2702 59.5584 57.1261 59.5648 57.0344 59.4805L57.3542 59.4661C58.6449 57.8948 58.6514 58.0404 58.5672 58.133L58.5529 57.8102L57.835 57.1504L57.8951 57.085C57.5992 57.0725 57.7432 57.0661 57.835 57.1504" fill="#1B1918"/>
<path fill-rule="evenodd" clip-rule="evenodd" d="M9.05758 58.4427C7.9307 59.8069 10.0896 62.0133 11.4776 60.8982L66.251 8.2063C66.3279 8.13236 66.3306 8.01024 66.2571 7.93292L-nan -nanL66.2571 7.93292C66.1851 7.85712 66.066 7.85205 65.9878 7.92145L9.05758 58.4427Z" fill="#5F160F"/>
<path fill-rule="evenodd" clip-rule="evenodd" d="M65.9235 7.84896C66.0408 7.74487 66.2195 7.75248 66.3276 7.86617C66.4377 7.98214 66.4336 8.16531 66.3183 8.27621L11.5418 60.9712L11.5384 60.9739C10.7896 61.5755 9.8462 61.2696 9.25547 60.6682C8.6649 60.0669 8.37479 59.1172 8.98294 58.381L8.98772 58.3752L65.9235 7.84896ZM66.187 7.99974C66.151 7.96184 66.0914 7.9593 66.0523 7.994L9.12776 58.5102C8.61508 59.1375 8.84132 59.9698 9.39381 60.5323C9.94686 61.0954 10.775 61.3354 11.4137 60.8254L66.1839 8.13646C66.2223 8.09948 66.2237 8.03841 66.187 7.99974Z" fill="white"/>
<path fill-rule="evenodd" clip-rule="evenodd" d="M11.8492 56.5168L13.6863 54.8594C13.8178 54.7408 14.0214 54.749 14.1408 54.8797L15.3469 56.2008C15.4663 56.3316 15.4581 56.5374 15.3266 56.656L13.4895 58.3134C13.358 58.432 13.1544 58.4238 13.035 58.2931L11.8289 56.972C11.7095 56.8412 11.7177 56.6354 11.8492 56.5168Z" fill="white"/>
<path fill-rule="evenodd" clip-rule="evenodd" d="M14.0691 54.9451C13.9863 54.8544 13.8437 54.8479 13.7512 54.9314L13.7512 54.9314L11.914 56.5888C11.8232 56.6707 11.8166 56.8148 11.9004 56.9066L13.1065 58.2277C13.1893 58.3184 13.3319 58.3249 13.4244 58.2414L13.4894 58.3134L13.4244 58.2414L15.2616 56.5841L15.3265 56.6561L15.2616 56.5841C15.3524 56.5021 15.359 56.358 15.2752 56.2662L15.2752 56.2662L14.0691 54.9451C14.0691 54.9451 14.0691 54.9451 14.0691 54.9451ZM13.6213 54.7874C13.7916 54.6338 14.0563 54.6436 14.2123 54.8144L14.2123 54.8144L15.4184 56.1355C15.4184 56.1355 15.4184 56.1355 15.4184 56.1355C15.5734 56.3052 15.5636 56.5728 15.3915 56.728L13.5543 58.3854C13.384 58.5391 13.1193 58.5293 12.9633 58.3585L11.7572 57.0374L11.7572 57.0374C11.6022 56.8676 11.612 56.6001 11.7841 56.4448L13.6213 54.7874Z" fill="#1B1918"/>
<path fill-rule="evenodd" clip-rule="evenodd" d="M10.4465 57.7389L11.1645 57.0791C11.2958 56.9584 11.5015 56.9676 11.6216 57.0996L12.8347 58.4328C12.9547 58.5647 12.9455 58.7715 12.8142 58.8921L12.0963 59.552C11.965 59.6727 11.7593 59.6635 11.6392 59.5315L10.4261 58.1983C10.306 58.0663 10.3152 57.8596 10.4465 57.7389Z" fill="white"/>
<path fill-rule="evenodd" clip-rule="evenodd" d="M11.55 57.1648C11.4661 57.0725 11.322 57.0661 11.2303 57.1504L10.5123 57.8102C10.4203 57.8948 10.4138 58.0404 10.498 58.133L11.7111 59.4661C11.795 59.5584 11.9391 59.5648 12.0308 59.4805L12.7488 58.8207C12.7488 58.8207 12.7488 58.8207 12.7488 58.8207C12.8408 58.7361 12.8473 58.5905 12.7631 58.4979L12.7631 58.4979L11.55 57.1648C11.55 57.1648 11.55 57.1648 11.55 57.1648ZM11.099 57.0076C11.27 56.8505 11.5372 56.8626 11.6934 57.0343L11.6934 57.0343L12.9065 58.3674C12.9065 58.3674 12.9065 58.3674 12.9065 58.3674C13.0625 58.5388 13.0506 58.8066 12.88 58.9634L12.88 58.9634L12.162 59.6233L12.0964 59.5519L12.162 59.6233C11.9912 59.7804 11.7239 59.7683 11.5677 59.5967L10.3546 58.2635L10.3546 58.2635C10.1986 58.0921 10.2105 57.8243 10.3811 57.6675L10.3811 57.6675L11.099 57.0076L11.1645 57.0788L11.099 57.0076Z" fill="#1B1918"/>
<path fill-rule="evenodd" clip-rule="evenodd" d="M52.12 32.9269C54.6867 32.9269 56.7682 35.0084 56.7682 37.5751C56.7682 40.1418 54.6867 42.2233 52.12 42.2233C49.5533 42.2233 47.4718 40.1418 47.4718 37.5751C47.4718 35.0084 49.5533 32.9269 52.12 32.9269Z" fill="#621A10"/>
<path fill-rule="evenodd" clip-rule="evenodd" d="M52.1201 32.9341C49.5574 32.9341 47.4792 35.0123 47.4792 37.575C47.4792 40.1376 49.5574 42.2159 52.1201 42.2159C54.6828 42.2159 56.761 40.1376 56.761 37.575C56.761 35.0123 54.6828 32.9341 52.1201 32.9341ZM47.4645 37.575C47.4645 35.0042 49.5493 32.9194 52.1201 32.9194C54.6908 32.9194 56.7756 35.0042 56.7756 37.575C56.7756 40.1457 54.6908 42.2305 52.1201 42.2305C49.5493 42.2305 47.4645 40.1457 47.4645 37.575Z" fill="white"/>
<path fill-rule="evenodd" clip-rule="evenodd" d="M51.5771 33.9105C48.7074 34.7458 48.3057 37.395 48.3057 37.1821C48.3057 35.0857 49.4874 33.7426 51.5771 33.9105Z" fill="white"/>
<path fill-rule="evenodd" clip-rule="evenodd" d="M48.3132 37.1618C48.3156 37.1543 48.3184 37.1453 48.3217 37.1348C48.3232 37.1297 48.3249 37.1244 48.3266 37.1187C48.3434 37.0641 48.3691 36.9808 48.4065 36.8757C48.4891 36.6439 48.6292 36.3061 48.8591 35.9355C49.3149 35.2008 50.1236 34.3373 51.5367 33.9148C50.5127 33.8415 49.7109 34.1347 49.1631 34.7023C48.6118 35.2737 48.3169 36.1241 48.3132 37.1618ZM48.3136 37.1908C48.3136 37.1908 48.3136 37.1907 48.3136 37.1907L48.3136 37.1908ZM49.1526 34.6921C49.711 34.1134 50.5312 33.8191 51.5777 33.9032L51.5792 33.9175C50.1465 34.3346 49.33 35.2043 48.8716 35.9432C48.6424 36.3127 48.5027 36.6495 48.4203 36.8807C48.383 36.9854 48.3574 37.0684 48.3406 37.123C48.3389 37.1287 48.3372 37.134 48.3357 37.1391C48.3274 37.1657 48.3216 37.1842 48.3177 37.1927C48.3167 37.1947 48.3155 37.197 48.314 37.1987C48.3133 37.1994 48.3115 37.2012 48.3085 37.2015C48.3047 37.2019 48.3022 37.1996 48.301 37.198C48.3 37.1966 48.2996 37.1951 48.2994 37.1942C48.2991 37.1931 48.2989 37.1919 48.2988 37.1908C48.2986 37.1884 48.2985 37.1855 48.2985 37.1821C48.2985 36.1326 48.5943 35.2707 49.1526 34.6921Z" fill="white"/>
<path fill-rule="evenodd" clip-rule="evenodd" d="M17.6413 32.8105C20.208 32.8105 22.2895 34.8921 22.2895 37.4588C22.2895 40.0255 20.208 42.107 17.6413 42.107C15.0746 42.107 12.9931 40.0255 12.9931 37.4588C12.9931 34.8921 15.0746 32.8105 17.6413 32.8105Z" fill="#621A10"/>
<path fill-rule="evenodd" clip-rule="evenodd" d="M17.6413 32.8179C15.0787 32.8179 13.0004 34.8961 13.0004 37.4588C13.0004 40.0214 15.0787 42.0997 17.6413 42.0997C20.204 42.0997 22.2822 40.0214 22.2822 37.4588C22.2822 34.8961 20.204 32.8179 17.6413 32.8179ZM12.9858 37.4588C12.9858 34.888 15.0706 32.8032 17.6413 32.8032C20.2121 32.8032 22.2969 34.888 22.2969 37.4588C22.2969 40.0295 20.2121 42.1143 17.6413 42.1143C15.0706 42.1143 12.9858 40.0295 12.9858 37.4588Z" fill="white"/>
<path fill-rule="evenodd" clip-rule="evenodd" d="M17.3285 33.656C14.4589 34.4912 14.0572 37.1405 14.0572 36.9276C14.0572 34.8312 15.2389 33.4881 17.3285 33.656Z" fill="white"/>
<path fill-rule="evenodd" clip-rule="evenodd" d="M14.0643 36.9073C14.0667 36.8998 14.0696 36.8907 14.0728 36.8802C14.0744 36.8752 14.076 36.8698 14.0778 36.8642C14.0946 36.8095 14.1202 36.7263 14.1577 36.6212C14.2403 36.3894 14.3804 36.0516 14.6103 35.681C15.066 34.9463 15.8747 34.0828 17.2879 33.6602C16.2639 33.587 15.462 33.8802 14.9143 34.4478C14.3629 35.0192 14.0681 35.8696 14.0643 36.9073ZM14.0648 36.9362C14.0648 36.9362 14.0648 36.9362 14.0648 36.9362L14.0648 36.9362ZM14.9037 34.4376C15.4622 33.8589 16.2823 33.5646 17.3289 33.6487L17.3303 33.663C15.8976 34.08 15.0811 34.9498 14.6227 35.6887C14.3935 36.0582 14.2538 36.395 14.1715 36.6261C14.1341 36.7309 14.1086 36.8139 14.0918 36.8685C14.09 36.8742 14.0884 36.8795 14.0868 36.8846C14.0786 36.9111 14.0727 36.9297 14.0688 36.9382C14.0679 36.9402 14.0667 36.9425 14.0652 36.9441C14.0645 36.9449 14.0626 36.9467 14.0597 36.947C14.0558 36.9474 14.0533 36.9451 14.0522 36.9435C14.0512 36.9421 14.0508 36.9406 14.0505 36.9396C14.0503 36.9386 14.0501 36.9374 14.05 36.9363C14.0497 36.9339 14.0496 36.931 14.0496 36.9276C14.0496 35.8781 14.3454 35.0162 14.9037 34.4376Z" fill="white"/>
<path fill-rule="evenodd" clip-rule="evenodd" d="M34.2988 48.5566C36.8656 48.5566 38.9471 50.6382 38.9471 53.2049C38.9471 55.7716 36.8656 57.8531 34.2988 57.8531C31.7321 57.8531 29.6506 55.7716 29.6506 53.2049C29.6506 50.6382 31.7321 48.5566 34.2988 48.5566Z" fill="#621A10"/>
<path fill-rule="evenodd" clip-rule="evenodd" d="M34.2989 48.564C31.7363 48.564 29.658 50.6422 29.658 53.2049C29.658 55.7675 31.7363 57.8458 34.2989 57.8458C36.8616 57.8458 38.9398 55.7675 38.9398 53.2049C38.9398 50.6422 36.8616 48.564 34.2989 48.564ZM29.6434 53.2049C29.6434 50.6341 31.7282 48.5493 34.2989 48.5493C36.8697 48.5493 38.9545 50.6341 38.9545 53.2049C38.9545 55.7756 36.8697 57.8604 34.2989 57.8604C31.7282 57.8604 29.6434 55.7756 29.6434 53.2049Z" fill="white"/>
<path fill-rule="evenodd" clip-rule="evenodd" d="M33.9861 49.4021C31.1165 50.2373 30.7148 52.8866 30.7148 52.6737C30.7148 50.5773 31.8965 49.2342 33.9861 49.4021Z" fill="white"/>
<path fill-rule="evenodd" clip-rule="evenodd" d="M30.7219 52.6534C30.7243 52.6459 30.7272 52.6368 30.7304 52.6263C30.732 52.6213 30.7336 52.6159 30.7354 52.6103C30.7522 52.5556 30.7778 52.4723 30.8152 52.3673C30.8979 52.1355 31.038 51.7977 31.2679 51.4271C31.7236 50.6924 32.5323 49.8289 33.9455 49.4063C32.9215 49.3331 32.1196 49.6262 31.5719 50.1939C31.0205 50.7653 30.7257 51.6157 30.7219 52.6534ZM30.7224 52.6823C30.7224 52.6823 30.7224 52.6823 30.7224 52.6823L30.7224 52.6823ZM31.5613 50.1837C32.1198 49.605 32.9399 49.3107 33.9865 49.3948L33.9879 49.4091C32.5552 49.8261 31.7387 50.6959 31.2803 51.4348C31.0511 51.8043 30.9114 52.1411 30.8291 52.3722C30.7917 52.477 30.7662 52.56 30.7494 52.6146C30.7476 52.6203 30.746 52.6256 30.7444 52.6307C30.7362 52.6572 30.7303 52.6758 30.7264 52.6843C30.7255 52.6863 30.7243 52.6886 30.7228 52.6902C30.7221 52.691 30.7202 52.6928 30.7173 52.6931C30.7134 52.6935 30.7109 52.6912 30.7098 52.6896C30.7088 52.6882 30.7083 52.6867 30.7081 52.6857C30.7078 52.6847 30.7077 52.6835 30.7076 52.6823C30.7073 52.68 30.7072 52.6771 30.7072 52.6737C30.7072 51.6242 31.003 50.7623 31.5613 50.1837Z" fill="white"/>
<path fill-rule="evenodd" clip-rule="evenodd" d="M33.7265 54.6518V52.0805C33.7265 51.9296 33.7175 51.8196 33.6982 51.7504C33.68 51.6812 33.6369 51.6313 33.57 51.6018C33.5031 51.5723 33.3942 51.5564 33.2433 51.5564H33.0324C32.8339 51.5564 32.7341 51.4861 32.7341 51.3455C32.7341 51.2638 32.7647 51.2071 32.8248 51.1753C32.8861 51.1436 32.9711 51.1186 33.0789 51.1005C33.3885 51.054 33.6948 50.9564 33.9976 50.8078C34.1451 50.7307 34.2619 50.6751 34.347 50.6377C34.432 50.6014 34.5205 50.5833 34.6113 50.5833C34.7519 50.5833 34.846 50.6218 34.8937 50.6989C34.9413 50.7761 34.9651 50.8895 34.9651 51.0381V54.6257C34.9651 54.772 34.972 54.8798 34.9856 54.9501C34.998 55.0193 35.0343 55.0749 35.0933 55.118C35.1523 55.16 35.2476 55.1861 35.3803 55.1974C35.5289 55.2144 35.6344 55.2348 35.6967 55.2586C35.758 55.2836 35.7897 55.3471 35.7897 55.4503C35.7897 55.608 35.6831 55.6874 35.4688 55.6874H33.2161C33.0993 55.6874 33.0097 55.6726 32.9484 55.6432C32.8861 55.6137 32.8554 55.549 32.8554 55.4503C32.8554 55.3562 32.8951 55.2949 32.9757 55.2654C33.0551 55.236 33.1583 55.2144 33.2831 55.2042C33.4282 55.1917 33.5315 55.169 33.5916 55.1361C33.6517 55.1021 33.6891 55.0511 33.7039 54.983C33.7186 54.9138 33.7265 54.8038 33.7265 54.6518Z" fill="white"/>
<path fill-rule="evenodd" clip-rule="evenodd" d="M52.9109 35.9582H51.3388C51.1562 35.9582 51.0257 35.973 50.9486 36.0036C50.8715 36.0331 50.8091 36.1091 50.7603 36.2304C50.732 36.2917 50.7025 36.337 50.6696 36.3688C50.6367 36.3994 50.5891 36.4153 50.5278 36.4153C50.4291 36.4153 50.3667 36.3858 50.3418 36.3268C50.3157 36.2679 50.3032 36.1817 50.3032 36.0671C50.3032 35.9639 50.3089 35.8141 50.3202 35.6157C50.3304 35.4183 50.3463 35.3003 50.3645 35.264C50.3985 35.2017 50.4427 35.1642 50.4972 35.1495C50.5505 35.1347 50.6242 35.1279 50.7184 35.1279H53.5563C53.6731 35.1279 53.7536 35.1359 53.7967 35.1518C53.841 35.1665 53.8625 35.2028 53.8625 35.2572C53.8625 35.3015 53.8307 35.3933 53.7684 35.5351L53.047 37.5099L52.4538 39.6128C52.4152 39.7704 52.3755 39.8839 52.3324 39.953C52.2893 40.0222 52.2326 40.0653 52.1645 40.0835C52.0953 40.1005 51.9842 40.1096 51.8288 40.1096H51.6859H51.1959C50.986 40.088 50.8817 40.0222 50.8817 39.9122C50.8817 39.851 50.9112 39.7625 50.9713 39.6457L52.557 36.5775L52.9109 35.9582Z" fill="white"/>
<path fill-rule="evenodd" clip-rule="evenodd" d="M18.5462 37.1389C18.7663 37.2467 18.9568 37.3658 19.1167 37.4974C19.2767 37.6289 19.4026 37.7843 19.4967 37.9635C19.5897 38.1428 19.6362 38.3469 19.6362 38.576C19.6362 38.8142 19.5773 39.0343 19.4604 39.2339C19.3436 39.4347 19.1825 39.6025 18.9761 39.7398C18.6018 39.9927 18.1197 40.1198 17.5322 40.1198C17.0343 40.1198 16.6168 40.0268 16.28 39.8419C16.0667 39.7273 15.8955 39.5776 15.7662 39.3916C15.6369 39.2067 15.5722 39.0003 15.5722 38.7723C15.5722 38.483 15.6743 38.2324 15.8796 38.0191C16.0849 37.8059 16.3367 37.6471 16.6339 37.5416C16.0441 37.2206 15.748 36.8168 15.748 36.3302C15.748 36.1147 15.807 35.9128 15.925 35.7245C16.0418 35.5351 16.196 35.3809 16.3877 35.2618C16.7416 35.0304 17.1817 34.9147 17.7103 34.9147C18.1515 34.9147 18.5213 34.9918 18.8184 35.1461C19.0113 35.2413 19.1667 35.3695 19.2858 35.5306C19.4048 35.6928 19.465 35.8754 19.465 36.0773C19.465 36.2327 19.4196 36.3801 19.33 36.5185C19.2404 36.658 19.1258 36.7783 18.9874 36.8815C18.8502 36.9847 18.7027 37.0709 18.5462 37.1389ZM17.2588 37.8819L17.1375 37.8206C16.7654 38.086 16.5794 38.3889 16.5794 38.7269C16.5794 38.9004 16.6248 39.0558 16.7144 39.1919C16.804 39.3281 16.9242 39.4335 17.0751 39.5073C17.2259 39.581 17.3893 39.6173 17.5662 39.6173C17.6944 39.6173 17.8271 39.5901 17.9644 39.5345C18.1016 39.4789 18.215 39.3995 18.3035 39.2952C18.392 39.1908 18.4362 39.0717 18.4362 38.9379C18.4362 38.8063 18.3976 38.6872 18.3205 38.5806C18.2434 38.4728 18.1458 38.3775 18.0256 38.2936C17.9065 38.2097 17.7931 38.1416 17.6853 38.0872C17.5776 38.0339 17.4358 37.9647 17.2588 37.8819ZM18.0279 36.9019C18.2059 36.7272 18.3284 36.5934 18.3965 36.4981C18.4634 36.404 18.4974 36.2746 18.4974 36.1124C18.4974 35.9741 18.4623 35.8482 18.3908 35.7359C18.3205 35.6236 18.2252 35.5351 18.1061 35.4727C17.987 35.4092 17.8566 35.3774 17.7159 35.3774C17.5106 35.3774 17.3337 35.4398 17.184 35.5657C17.0343 35.6916 16.9594 35.8538 16.9594 36.0501C16.9594 36.2497 17.0604 36.4119 17.26 36.5367C17.4596 36.6614 17.7148 36.7828 18.0279 36.9019Z" fill="white"/>
</svg>
