<svg width="19" height="19" viewBox="0 0 19 19" fill="none" xmlns="http://www.w3.org/2000/svg">
<path d="M0 9.024C0 7.392 0.408 5.88 1.216 4.496C2.024 3.112 3.12 2.016 4.504 1.208C5.888 0.4 7.392 0 9.016 0C10.232 0 11.4 0.24 12.512 0.712C13.624 1.184 14.576 1.832 15.384 2.632C16.192 3.432 16.832 4.392 17.304 5.512C17.776 6.632 18.016 7.792 18.016 9.024C18.016 10.24 17.776 11.408 17.304 12.52C16.832 13.632 16.184 14.592 15.384 15.392C14.584 16.192 13.624 16.832 12.512 17.304C11.4 17.776 10.24 18.016 9.016 18.016C7.792 18.016 6.616 17.776 5.504 17.304C4.392 16.832 3.432 16.184 2.624 15.384C1.816 14.584 1.184 13.624 0.704 12.52C0.224 11.416 0 10.248 0 9.024ZM1.984 9.024C1.984 10.92 2.672 12.568 4.056 13.968C5.44 15.352 7.088 16.04 9.016 16.04C10.28 16.04 11.456 15.728 12.528 15.096C13.6 14.464 14.464 13.616 15.096 12.536C15.728 11.456 16.048 10.288 16.048 9.024C16.048 7.76 15.728 6.584 15.096 5.504C14.464 4.424 13.608 3.568 12.528 2.936C11.448 2.304 10.28 1.992 9.016 1.992C7.752 1.992 6.576 2.304 5.504 2.936C4.432 3.568 3.568 4.424 2.928 5.504C2.288 6.584 1.984 7.76 1.984 9.024ZM8.32 9.024V3.696C8.32 3.512 8.384 3.352 8.512 3.224C8.64 3.096 8.8 3.032 8.984 3.032C9.168 3.032 9.328 3.096 9.456 3.224C9.584 3.352 9.648 3.512 9.648 3.696V8.352H12.672C12.856 8.352 13.016 8.416 13.144 8.544C13.272 8.672 13.336 8.832 13.336 9.016C13.336 9.192 13.272 9.352 13.144 9.488C13.016 9.624 12.856 9.688 12.672 9.688H9.12C9.096 9.696 9.048 9.696 8.976 9.696C8.88805 9.69761 8.8007 9.6812 8.71932 9.64779C8.63795 9.61438 8.56427 9.56467 8.50282 9.50172C8.44137 9.43878 8.39345 9.36392 8.36201 9.28177C8.33057 9.19961 8.31628 9.11189 8.32 9.024Z" fill="white"/>
</svg>
