<svg width="24" height="24" viewBox="0 0 24 24" fill="none" xmlns="http://www.w3.org/2000/svg">
<path d="M4 11H20C20.2652 11 20.5196 11.1054 20.7071 11.2929C20.8946 11.4804 21 11.7348 21 12V12.5C21 14 18.483 18.073 17 19V20C17 20.2652 16.8946 20.5196 16.7071 20.7071C16.5196 20.8946 16.2652 21 16 21H8C7.73478 21 7.48043 20.8946 7.29289 20.7071C7.10536 20.5196 7 20.2652 7 20V19C5.313 17.946 3 14 3 12.5V12C3 11.7348 3.10536 11.4804 3.29289 11.2929C3.48043 11.1054 3.73478 11 4 11ZM12 4C11.6835 4.22717 11.4271 4.52797 11.2528 4.87642C11.0786 5.22488 10.9918 5.6105 11 6C10.9918 6.3895 11.0786 6.77512 11.2528 7.12358C11.4271 7.47203 11.6835 7.77283 12 8M16 4C15.6835 4.22717 15.4271 4.52797 15.2528 4.87642C15.0786 5.22488 14.9918 5.6105 15 6C14.9918 6.3895 15.0786 6.77512 15.2528 7.12358C15.4271 7.47203 15.6835 7.77283 16 8M8 4C7.68351 4.22717 7.42707 4.52797 7.25285 4.87642C7.07862 5.22488 6.99184 5.6105 7 6C6.99184 6.3895 7.07862 6.77512 7.25285 7.12358C7.42707 7.47203 7.68351 7.77283 8 8" fill="url(#paint0_linear_1478_5955)"/>
<path d="M12 4C11.6835 4.22717 11.4271 4.52797 11.2528 4.87642C11.0786 5.22488 10.9918 5.6105 11 6C10.9918 6.3895 11.0786 6.77512 11.2528 7.12358C11.4271 7.47203 11.6835 7.77283 12 8M16 4C15.6835 4.22717 15.4271 4.52797 15.2528 4.87642C15.0786 5.22488 14.9918 5.6105 15 6C14.9918 6.3895 15.0786 6.77512 15.2528 7.12358C15.4271 7.47203 15.6835 7.77283 16 8M8 4C7.68351 4.22717 7.42707 4.52797 7.25285 4.87642C7.07862 5.22488 6.99184 5.6105 7 6C6.99184 6.3895 7.07862 6.77512 7.25285 7.12358C7.42707 7.47203 7.68351 7.77283 8 8M4 11H20C20.2652 11 20.5196 11.1054 20.7071 11.2929C20.8946 11.4804 21 11.7348 21 12V12.5C21 14 18.483 18.073 17 19V20C17 20.2652 16.8946 20.5196 16.7071 20.7071C16.5196 20.8946 16.2652 21 16 21H8C7.73478 21 7.48043 20.8946 7.29289 20.7071C7.10536 20.5196 7 20.2652 7 20V19C5.313 17.946 3 14 3 12.5V12C3 11.7348 3.10536 11.4804 3.29289 11.2929C3.48043 11.1054 3.73478 11 4 11Z" stroke="url(#paint1_linear_1478_5955)" stroke-width="1.96491" stroke-linecap="round" stroke-linejoin="round"/>
<defs>
<linearGradient id="paint0_linear_1478_5955" x1="12" y1="4" x2="12" y2="21" gradientUnits="userSpaceOnUse">
<stop stop-color="#FFA800"/>
<stop offset="1" stop-color="#FFEA2D"/>
</linearGradient>
<linearGradient id="paint1_linear_1478_5955" x1="12" y1="4" x2="12" y2="21" gradientUnits="userSpaceOnUse">
<stop stop-color="#FFA800"/>
<stop offset="1" stop-color="#FFEA2D"/>
</linearGradient>
</defs>
</svg>
