<svg width="24" height="24" viewBox="0 0 24 24" fill="none" xmlns="http://www.w3.org/2000/svg">
<g id="fluent:bowl-salad-24-filled">
<path id="Vector" d="M12 2C10.8873 1.99981 9.80076 2.33698 8.88365 2.96701C7.96654 3.59705 7.262 4.49033 6.863 5.529C6.4482 5.40939 6.02767 5.3106 5.603 5.233C4.72962 5.07488 3.84357 4.99722 2.956 5.001L2.784 5.005L2.736 5.007L2.716 5.008C2.5315 5.01807 2.35721 5.0959 2.22655 5.22655C2.0959 5.35721 2.01807 5.5315 2.008 5.716L2.005 5.785C1.99816 6.04632 1.99983 6.30779 2.01 6.569C2.03 7.082 2.086 7.796 2.233 8.603C2.367 9.338 2.581 10.168 2.923 11H2.746C2.54815 11 2.3584 11.0786 2.2185 11.2185C2.0786 11.3584 2 11.5481 2 11.746V12C2 13.045 2.16 14.053 2.458 15H21.542C21.8464 14.0291 22.0009 13.0175 22 12V11.746C22 11.5481 21.9214 11.3584 21.7815 11.2185C21.6416 11.0786 21.4519 11 21.254 11H20.997C21.0253 9.89637 20.6782 8.81579 20.0127 7.93498C19.3471 7.05416 18.4024 6.42522 17.333 6.151C17.0324 4.9643 16.3446 3.91174 15.3785 3.1599C14.4124 2.40807 13.2232 1.9999 11.999 2H12ZM12 3.5C12.7999 3.50012 13.5814 3.74 14.2436 4.18866C14.9058 4.63732 15.4183 5.27417 15.715 6.017C14.8551 6.08928 14.0297 6.38838 13.3231 6.8838C12.6166 7.37921 12.054 8.0532 11.693 8.837C11.4233 8.43747 11.1163 8.06446 10.776 7.723C10.027 6.974 9.156 6.433 8.274 6.04C8.56774 5.29112 9.0804 4.64818 9.74508 4.19508C10.4098 3.74197 11.1956 3.49974 12 3.5ZM19.498 10.875C19.498 10.917 19.498 10.959 19.496 11H12.767L12.749 10.95V10.875C12.749 9.97989 13.1046 9.12145 13.7375 8.48851C14.3705 7.85558 15.2289 7.5 16.124 7.5C17.0191 7.5 17.8776 7.85558 18.5105 8.48851C19.1434 9.12145 19.499 9.97989 19.499 10.875H19.498ZM9.716 8.784C10.359 9.426 10.825 10.199 11.161 11H9.061L7.28 9.22C7.21134 9.14631 7.12854 9.08721 7.03654 9.04622C6.94454 9.00523 6.84523 8.98318 6.74452 8.98141C6.64382 8.97963 6.54379 8.99816 6.4504 9.03588C6.35701 9.0736 6.27218 9.12974 6.20096 9.20096C6.12974 9.27218 6.0736 9.35701 6.03588 9.4504C5.99816 9.54379 5.97963 9.64382 5.98141 9.74452C5.98319 9.84522 6.00523 9.94454 6.04622 10.0365C6.08721 10.1285 6.14631 10.2113 6.22 10.28L6.94 11H4.57C4.13 10.124 3.866 9.187 3.71 8.333C3.6006 7.73112 3.53376 7.12228 3.51 6.511V6.509C3.97 6.526 4.612 6.577 5.333 6.709C6.793 6.976 8.493 7.559 9.716 8.784ZM3.067 16.5C3.90053 18.1541 5.1771 19.5443 6.7544 20.5154C8.33169 21.4865 10.1477 22.0005 12 22C13.8523 22.0005 15.6683 21.4865 17.2456 20.5154C18.8229 19.5443 20.0995 18.1541 20.933 16.5H3.067Z" fill="url(#paint0_linear_1478_5957)"/>
</g>
<defs>
<linearGradient id="paint0_linear_1478_5957" x1="12" y1="2" x2="12" y2="22" gradientUnits="userSpaceOnUse">
<stop stop-color="#FFA800"/>
<stop offset="1" stop-color="#FFEA2D"/>
</linearGradient>
</defs>
</svg>
