<svg width="24" height="24" viewBox="0 0 24 24" fill="none" xmlns="http://www.w3.org/2000/svg">
<g id="mdi:food-turkey">
<path id="Vector" d="M5.44 7.96L5.96 7.43C6.54 6.85 7.5 6.85 8.1 7.47L8.12 7.5C8.61 8 9.26 8.24 9.97 8.31C10.94 8.4 11.88 8.92 12.5 9.86C13.18 10.94 13.17 12.38 12.46 13.45C12.1922 13.8735 11.8321 14.2309 11.4066 14.4955C10.9811 14.7601 10.5013 14.925 10.003 14.9779C9.50479 15.0308 9.00102 14.9703 8.52946 14.801C8.0579 14.6316 7.63075 14.3578 7.28 14C6.72 13.45 6.4 12.74 6.32 12C6.24 11.27 5.95 10.58 5.44 10.07C4.86 9.5 4.86 8.54 5.44 7.96ZM9.64 16C8.47 16 7.38 15.55 6.57 14.72C5.87 14 5.43 13.1 5.32 12.12C5.29 11.82 5.2 11.43 4.96 11.07C4.36 11.9 4 12.9 4 14C4 15.64 4.8 17.09 6.03 18H19V17C19 13.4 16.61 10.35 13.34 9.35C14.23 10.75 14.21 12.62 13.3 14C12.5 15.25 11.12 16 9.64 16ZM14.78 7.56H16.05C16.92 7.56 17.68 8.17 17.68 9.26V10H18.93V9C18.93 7.5 17.6 6.36 16.05 6.36H14.78C13.95 6.36 13.24 5.54 13.24 4.7C13.24 3.86 13.95 3.24 14.78 3.24V2C13.24 2 12 3.24 12 4.78C12 6.32 13.24 7.56 14.78 7.56ZM4.5 7.55C4.56 7.45 4.64 7.35 4.73 7.25L5.25 6.73C5.34 6.64 5.44 6.57 5.54 6.5L4.13 5.07C4.27 4.8 4.22 4.45 4 4.22C3.8568 4.0806 3.66485 4.0026 3.465 4.0026C3.26516 4.0026 3.0732 4.0806 2.93 4.22C2.79 4.36 2.72 4.53 2.71 4.71C2.53 4.72 2.36 4.79 2.22 4.93C1.93 5.22 1.93 5.7 2.22 6C2.45 6.22 2.79 6.27 3.07 6.13L4.5 7.55ZM18.39 4.39C18.9 3.88 19.22 3.19 19.22 2.42H17.97C17.97 3.25 17.27 3.95 16.44 3.95V5.19C18.3 5.19 19.76 6.71 19.76 8.57V11H21V8.57C21.005 7.69771 20.7624 6.8419 20.3004 6.10199C19.8384 5.36208 19.1759 4.76843 18.39 4.39ZM5 21H19C20.11 21 21 20.11 21 19H3C3 19.5304 3.21072 20.0391 3.58579 20.4142C3.96086 20.7893 4.46957 21 5 21Z" fill="url(#paint0_linear_1478_5959)"/>
</g>
<defs>
<linearGradient id="paint0_linear_1478_5959" x1="11.5013" y1="2" x2="11.5013" y2="21" gradientUnits="userSpaceOnUse">
<stop stop-color="#FFA800"/>
<stop offset="1" stop-color="#FFEA2D"/>
</linearGradient>
</defs>
</svg>
