<svg width="24" height="24" viewBox="0 0 24 24" fill="none" xmlns="http://www.w3.org/2000/svg">
<g id="bxs:bowl-rice">
<path id="Vector" d="M21 10.0004C20.9817 9.3881 20.8066 8.79077 20.4914 8.26552C20.1763 7.74027 19.7316 7.30466 19.2 7.00038C19.0725 6.12932 18.6354 5.33339 17.9686 4.75851C17.3019 4.18362 16.4503 3.86831 15.57 3.87038C15.2324 3.86979 14.8962 3.9135 14.57 4.00038C13.8817 3.34323 12.9666 2.97656 12.015 2.97656C11.0634 2.97656 10.1483 3.34323 9.46 4.00038C9.13379 3.9135 8.79758 3.86979 8.46 3.87038C7.57623 3.86348 6.71981 4.1766 6.04892 4.75192C5.37802 5.32724 4.93795 6.12589 4.81 7.00038C4.27652 7.30342 3.82987 7.73848 3.51291 8.26382C3.19596 8.78915 3.01934 9.38713 3 10.0004C2.73478 10.0004 2.48043 10.1057 2.29289 10.2933C2.10536 10.4808 2 10.7352 2 11.0004C2.00004 12.7557 2.46213 14.4801 3.33981 16.0002C4.21749 17.5204 5.47985 18.7827 7 19.6604V21.0004C7 21.2656 7.10536 21.5199 7.29289 21.7075C7.48043 21.895 7.73478 22.0004 8 22.0004H16C16.2652 22.0004 16.5196 21.895 16.7071 21.7075C16.8946 21.5199 17 21.2656 17 21.0004V19.6604C18.5202 18.7827 19.7825 17.5204 20.6602 16.0002C21.5379 14.4801 22 12.7557 22 11.0004C22 10.7352 21.8946 10.4808 21.7071 10.2933C21.5196 10.1057 21.2652 10.0004 21 10.0004ZM5 10.0004C5.0254 9.68444 5.14465 9.3833 5.34243 9.13563C5.54022 8.88795 5.80751 8.70504 6.11 8.61038L6.94 8.35038L6.78 7.50038C6.78261 7.285 6.82762 7.07225 6.91246 6.87428C6.9973 6.6763 7.1203 6.49698 7.27445 6.34654C7.4286 6.19611 7.61087 6.07751 7.81086 5.99753C8.01084 5.91754 8.22463 5.87773 8.44 5.88038C8.72879 5.87872 9.01366 5.94736 9.27 6.08038L10.08 6.53038L10.58 5.76038C10.7364 5.52731 10.9477 5.33632 11.1953 5.20426C11.443 5.07219 11.7193 5.00311 12 5.00311C12.2807 5.00311 12.557 5.07219 12.8047 5.20426C13.0523 5.33632 13.2636 5.52731 13.42 5.76038L13.92 6.53038L14.73 6.08038C14.9863 5.94736 15.2712 5.87872 15.56 5.88038C15.9925 5.87494 16.4099 6.03956 16.7222 6.33882C17.0346 6.63807 17.2169 7.04801 17.23 7.48038L17.07 8.33038L17.89 8.61038C18.1925 8.70504 18.4598 8.88795 18.6576 9.13563C18.8554 9.3833 18.9746 9.68444 19 10.0004H5Z" fill="url(#paint0_linear_1478_5961)"/>
</g>
<defs>
<linearGradient id="paint0_linear_1478_5961" x1="12" y1="2.97656" x2="12" y2="22.0004" gradientUnits="userSpaceOnUse">
<stop stop-color="#FFA800"/>
<stop offset="1" stop-color="#FFEA2D"/>
</linearGradient>
</defs>
</svg>
