<svg width="24" height="24" viewBox="0 0 24 24" fill="none" xmlns="http://www.w3.org/2000/svg">
<g id="mingcute:drink-fill" clip-path="url(#clip0_1478_5963)">
<g id="Group">
<path id="Vector" fill-rule="evenodd" clip-rule="evenodd" d="M13.815 3.5797C13.9613 3.36331 14.0172 3.09826 13.9706 2.84123C13.924 2.5842 13.7787 2.3556 13.5658 2.20432C13.3528 2.05303 13.0891 1.99108 12.8311 2.0317C12.5731 2.07233 12.3412 2.2123 12.185 2.4217L11.185 3.8307C11.1469 3.88403 11.114 3.94097 11.087 4.0007H7.5C7.10218 4.0007 6.72064 4.15873 6.43934 4.44004C6.15804 4.72134 6 5.10287 6 5.5007V7.0007L6.003 7.0847C5.7097 7.18769 5.45565 7.37927 5.27596 7.63294C5.09628 7.88661 4.99985 8.18984 5 8.5007V10.0007C5 10.265 5.10467 10.5186 5.29112 10.706C5.47758 10.8934 5.73065 10.9994 5.995 11.0007L6.915 20.2007C6.96458 20.694 7.19564 21.1513 7.56334 21.4839C7.93105 21.8165 8.40919 22.0007 8.905 22.0007H15.095C15.5908 22.0007 16.069 21.8165 16.4367 21.4839C16.8044 21.1513 17.0354 20.694 17.085 20.2007L18.005 11.0007C18.2693 10.9994 18.5224 10.8934 18.7089 10.706C18.8953 10.5186 19 10.265 19 10.0007V8.5007C19.0002 8.18984 18.9037 7.88661 18.724 7.63294C18.5444 7.37927 18.2903 7.18769 17.997 7.0847L18 7.0007V5.5007C18 5.10287 17.842 4.72134 17.5607 4.44004C17.2794 4.15873 16.8978 4.0007 16.5 4.0007H13.517L13.815 3.5797ZM8 7.0007V6.0007H16V7.0007H8Z" fill="url(#paint0_linear_1478_5963)"/>
</g>
</g>
<defs>
<linearGradient id="paint0_linear_1478_5963" x1="12" y1="2.01953" x2="12" y2="22.0007" gradientUnits="userSpaceOnUse">
<stop stop-color="#FFA800"/>
<stop offset="1" stop-color="#FFEA2D"/>
</linearGradient>
<clipPath id="clip0_1478_5963">
<rect width="24" height="24" fill="white"/>
</clipPath>
</defs>
</svg>
