<svg width="57" height="57" viewBox="0 0 57 57" fill="none" xmlns="http://www.w3.org/2000/svg">
<g id="tabler:soup">
<g id="Vector">
<path d="M9.5 26.125H47.5C48.1299 26.125 48.734 26.3752 49.1794 26.8206C49.6248 27.266 49.875 27.8701 49.875 28.5V29.6875C49.875 33.25 43.8971 42.9234 40.375 45.125V47.5C40.375 48.1299 40.1248 48.734 39.6794 49.1794C39.234 49.6248 38.6299 49.875 38 49.875H19C18.3701 49.875 17.766 49.6248 17.3206 49.1794C16.8752 48.734 16.625 48.1299 16.625 47.5V45.125C12.6184 42.6217 7.125 33.25 7.125 29.6875V28.5C7.125 27.8701 7.37522 27.266 7.82062 26.8206C8.26602 26.3752 8.87011 26.125 9.5 26.125ZM28.5 9.5C27.7483 10.0395 27.1393 10.7539 26.7255 11.5815C26.3117 12.4091 26.1056 13.3249 26.125 14.25C26.1056 15.1751 26.3117 16.0909 26.7255 16.9185C27.1393 17.7461 27.7483 18.4605 28.5 19M38 9.5C37.2483 10.0395 36.6393 10.7539 36.2255 11.5815C35.8117 12.4091 35.6056 13.3249 35.625 14.25C35.6056 15.1751 35.8117 16.0909 36.2255 16.9185C36.6393 17.7461 37.2483 18.4605 38 19M19 9.5C18.2483 10.0395 17.6393 10.7539 17.2255 11.5815C16.8117 12.4091 16.6056 13.3249 16.625 14.25C16.6056 15.1751 16.8117 16.0909 17.2255 16.9185C17.6393 17.7461 18.2483 18.4605 19 19" fill="url(#paint0_linear_13_146)"/>
<path d="M28.5 9.5C27.7483 10.0395 27.1393 10.7539 26.7255 11.5815C26.3117 12.4091 26.1056 13.3249 26.125 14.25C26.1056 15.1751 26.3117 16.0909 26.7255 16.9185C27.1393 17.7461 27.7483 18.4605 28.5 19M38 9.5C37.2483 10.0395 36.6393 10.7539 36.2255 11.5815C35.8117 12.4091 35.6056 13.3249 35.625 14.25C35.6056 15.1751 35.8117 16.0909 36.2255 16.9185C36.6393 17.7461 37.2483 18.4605 38 19M19 9.5C18.2483 10.0395 17.6393 10.7539 17.2255 11.5815C16.8117 12.4091 16.6056 13.3249 16.625 14.25C16.6056 15.1751 16.8117 16.0909 17.2255 16.9185C17.6393 17.7461 18.2483 18.4605 19 19M9.5 26.125H47.5C48.1299 26.125 48.734 26.3752 49.1794 26.8206C49.6248 27.266 49.875 27.8701 49.875 28.5V29.6875C49.875 33.25 43.8971 42.9234 40.375 45.125V47.5C40.375 48.1299 40.1248 48.734 39.6794 49.1794C39.234 49.6248 38.6299 49.875 38 49.875H19C18.3701 49.875 17.766 49.6248 17.3206 49.1794C16.8752 48.734 16.625 48.1299 16.625 47.5V45.125C12.6184 42.6217 7.125 33.25 7.125 29.6875V28.5C7.125 27.8701 7.37522 27.266 7.82062 26.8206C8.26602 26.3752 8.87011 26.125 9.5 26.125Z" stroke="url(#paint1_linear_13_146)" stroke-width="4.66667" stroke-linecap="round" stroke-linejoin="round"/>
</g>
</g>
<defs>
<linearGradient id="paint0_linear_13_146" x1="28.5" y1="9.5" x2="28.5" y2="49.875" gradientUnits="userSpaceOnUse">
<stop stop-color="#FFA800"/>
<stop offset="1" stop-color="#FFEA2D"/>
</linearGradient>
<linearGradient id="paint1_linear_13_146" x1="28.5" y1="9.5" x2="28.5" y2="49.875" gradientUnits="userSpaceOnUse">
<stop stop-color="#FFA800"/>
<stop offset="1" stop-color="#FFEA2D"/>
</linearGradient>
</defs>
</svg>
