<svg width="57" height="57" viewBox="0 0 57 57" fill="none" xmlns="http://www.w3.org/2000/svg">
<path d="M12.9199 18.905L14.1549 17.6462C15.5324 16.2687 17.8124 16.2687 19.2374 17.7412L19.2849 17.8125C20.4487 19 21.9924 19.57 23.6787 19.7363C25.9824 19.95 28.2149 21.185 29.6874 23.4175C31.3024 25.9825 31.2787 29.4025 29.5924 31.9438C28.9564 32.9495 28.1011 33.7984 27.0906 34.4268C26.0801 35.0552 24.9405 35.4469 23.7571 35.5726C22.5738 35.6982 21.3773 35.5546 20.2574 35.1524C19.1374 34.7501 18.123 34.0998 17.2899 33.25C15.9599 31.9438 15.1999 30.2575 15.0099 28.5C14.8199 26.7663 14.1312 25.1275 12.9199 23.9162C11.5424 22.5625 11.5424 20.2825 12.9199 18.905ZM22.8949 38C20.1162 38 17.5274 36.9313 15.6037 34.96C13.9412 33.25 12.8962 31.1125 12.6349 28.785C12.5637 28.0725 12.3499 27.1462 11.7799 26.2912C10.3549 28.2625 9.49992 30.6375 9.49992 33.25C9.49992 37.145 11.3999 40.5887 14.3212 42.75H45.1249V40.375C45.1249 31.825 39.4487 24.5813 31.6824 22.2063C33.7962 25.5312 33.7487 29.9725 31.5874 33.25C29.6874 36.2188 26.4099 38 22.8949 38ZM35.1024 17.955H38.1187C40.1849 17.955 41.9899 19.4038 41.9899 21.9925V23.75H44.9587V21.375C44.9587 17.8125 41.7999 15.105 38.1187 15.105H35.1024C33.1312 15.105 31.4449 13.1575 31.4449 11.1625C31.4449 9.1675 33.1312 7.695 35.1024 7.695V4.75C31.4449 4.75 28.4999 7.695 28.4999 11.3525C28.4999 15.01 31.4449 17.955 35.1024 17.955ZM10.6874 17.9313C10.8299 17.6938 11.0199 17.4563 11.2337 17.2188L12.4687 15.9838C12.6824 15.77 12.9199 15.6038 13.1574 15.4375L9.80867 12.0413C10.1412 11.4 10.0224 10.5687 9.49992 10.0225C9.15982 9.69143 8.70393 9.50618 8.2293 9.50618C7.75466 9.50618 7.29878 9.69143 6.95867 10.0225C6.62617 10.355 6.45992 10.7587 6.43617 11.1863C6.00867 11.21 5.60492 11.3762 5.27242 11.7087C4.58367 12.3975 4.58367 13.5375 5.27242 14.25C5.81867 14.7725 6.62617 14.8913 7.29117 14.5588L10.6874 17.9313ZM43.6762 10.4262C44.8874 9.215 45.6474 7.57625 45.6474 5.7475H42.6787C42.6787 7.71875 41.0162 9.38125 39.0449 9.38125V12.3263C43.4624 12.3263 46.9299 15.9362 46.9299 20.3537V26.125H49.8749V20.3537C49.8868 18.2821 49.3106 16.2495 48.2134 14.4922C47.1161 12.7349 45.5428 11.325 43.6762 10.4262ZM11.8749 49.875H45.1249C47.7612 49.875 49.8749 47.7612 49.8749 45.125H7.12492C7.12492 46.3848 7.62537 47.593 8.51616 48.4838C9.40696 49.3746 10.6151 49.875 11.8749 49.875Z" fill="url(#paint0_linear_13_140)"/>
<defs>
<linearGradient id="paint0_linear_13_140" x1="27.3155" y1="4.75" x2="27.3155" y2="49.875" gradientUnits="userSpaceOnUse">
<stop stop-color="#FFA800"/>
<stop offset="1" stop-color="#FFEA2D"/>
</linearGradient>
</defs>
</svg>
