<svg width="16" height="17" viewBox="0 0 16 17" fill="none" xmlns="http://www.w3.org/2000/svg">
<path d="M8 8.17499C6.9 8.17499 5.95833 7.78332 5.175 6.99999C4.39167 6.21665 4 5.27499 4 4.17499C4 3.07499 4.39167 2.13332 5.175 1.34999C5.95833 0.566655 6.9 0.174988 8 0.174988C9.1 0.174988 10.0417 0.566655 10.825 1.34999C11.6083 2.13332 12 3.07499 12 4.17499C12 5.27499 11.6083 6.21665 10.825 6.99999C10.0417 7.78332 9.1 8.17499 8 8.17499ZM0 16.175V13.375C0 12.8083 0.146 12.2873 0.438 11.812C0.73 11.3367 1.11733 10.9743 1.6 10.725C2.63333 10.2083 3.68333 9.82065 4.75 9.56199C5.81667 9.30332 6.9 9.17432 8 9.17499C9.1 9.17499 10.1833 9.30432 11.25 9.56299C12.3167 9.82165 13.3667 10.209 14.4 10.725C14.8833 10.975 15.271 11.3377 15.563 11.813C15.855 12.2883 16.0007 12.809 16 13.375V16.175H0Z" fill="white"/>
</svg>
