<svg width="24" height="24" viewBox="0 0 24 24" fill="none" xmlns="http://www.w3.org/2000/svg">
<path d="M21.0001 18.251C21.0001 17.9555 20.9419 17.663 20.8288 17.3901C20.7157 17.1172 20.5499 16.8692 20.341 16.6603C20.132 16.4515 19.884 16.2858 19.611 16.1729C19.338 16.0599 19.0455 16.0018 18.7501 16.002H5.25006C4.95472 16.002 4.66226 16.0601 4.3894 16.1732C4.11654 16.2862 3.86861 16.4519 3.65977 16.6607C3.45094 16.8695 3.28528 17.1175 3.17225 17.3903C3.05923 17.6632 3.00106 17.9556 3.00106 18.251C3.00106 18.5463 3.05923 18.8388 3.17225 19.1116C3.28528 19.3845 3.45094 19.6324 3.65977 19.8413C3.86861 20.0501 4.11654 20.2158 4.3894 20.3288C4.66226 20.4418 4.95472 20.5 5.25006 20.5H18.7501C19.0455 20.5001 19.338 20.442 19.611 20.3291C19.884 20.2161 20.132 20.0505 20.341 19.8416C20.5499 19.6328 20.7157 19.3848 20.8288 19.1119C20.9419 18.8389 21.0001 18.5464 21.0001 18.251ZM17.0001 11.751C17.0001 11.4555 16.9419 11.163 16.8288 10.8901C16.7157 10.6172 16.5499 10.3692 16.341 10.1603C16.132 9.95149 15.884 9.78585 15.611 9.67288C15.338 9.55992 15.0455 9.50185 14.7501 9.50198H5.25006C4.94907 9.493 4.64935 9.54453 4.36864 9.65352C4.08794 9.7625 3.83196 9.92672 3.61589 10.1364C3.39981 10.3462 3.22803 10.5971 3.11073 10.8745C2.99343 11.1518 2.93298 11.4499 2.93298 11.751C2.93298 12.0521 2.99343 12.3502 3.11073 12.6275C3.22803 12.9048 3.39981 13.1558 3.61589 13.3655C3.83196 13.5752 4.08794 13.7395 4.36864 13.8484C4.64935 13.9574 4.94907 14.009 5.25006 14H14.7501C15.0455 14.0001 15.338 13.942 15.611 13.8291C15.884 13.7161 16.132 13.5505 16.341 13.3416C16.5499 13.1328 16.7157 12.8848 16.8288 12.6119C16.9419 12.3389 17.0001 12.0464 17.0001 11.751ZM13.0001 5.25098C13.0001 4.65424 12.763 4.08194 12.341 3.65999C11.9191 3.23803 11.3468 3.00098 10.7501 3.00098L5.25006 3.00198C4.6652 3.01942 4.11013 3.26401 3.7026 3.68388C3.29507 4.10375 3.06713 4.66585 3.06713 5.25098C3.06713 5.8361 3.29507 6.39821 3.7026 6.81807C4.11013 7.23794 4.6652 7.48253 5.25006 7.49998H10.7501C11.3466 7.49998 11.9188 7.26306 12.3407 6.84132C12.7626 6.41958 12.9998 5.84754 13.0001 5.25098Z" fill="black"/>
</svg>
