<svg width="24" height="24" viewBox="0 0 24 24" fill="none" xmlns="http://www.w3.org/2000/svg">
<g id="material-symbols:format-list-bulleted">
<path id="Vector" d="M9 19V17H21V19H9ZM9 13V11H21V13H9ZM9 7V5H21V7H9ZM5 20C4.45 20 3.979 19.804 3.587 19.412C3.195 19.02 2.99934 18.5493 3 18C3 17.45 3.196 16.979 3.588 16.587C3.98 16.195 4.45067 15.9993 5 16C5.55 16 6.021 16.196 6.413 16.588C6.805 16.98 7.00067 17.4507 7 18C7 18.55 6.804 19.021 6.412 19.413C6.02 19.805 5.54934 20.0007 5 20ZM5 14C4.45 14 3.979 13.804 3.587 13.412C3.195 13.02 2.99934 12.5493 3 12C3 11.45 3.196 10.979 3.588 10.587C3.98 10.195 4.45067 9.99934 5 10C5.55 10 6.021 10.196 6.413 10.588C6.805 10.98 7.00067 11.4507 7 12C7 12.55 6.804 13.021 6.412 13.413C6.02 13.805 5.54934 14.0007 5 14ZM5 8C4.45 8 3.979 7.804 3.587 7.412C3.195 7.02 2.99934 6.54934 3 6C3 5.45 3.196 4.979 3.588 4.587C3.98 4.195 4.45067 3.99934 5 4C5.55 4 6.021 4.196 6.413 4.588C6.805 4.98 7.00067 5.45067 7 6C7 6.55 6.804 7.021 6.412 7.413C6.02 7.805 5.54934 8.00067 5 8Z" fill="black"/>
</g>
</svg>
