<svg width="22" height="24" viewBox="0 0 22 24" fill="none" xmlns="http://www.w3.org/2000/svg">
<g clip-path="url(#clip0_96_1577)">
<path d="M12.5503 2C12.9185 2.00011 13.2774 2.13229 13.576 2.37781C13.8747 2.62333 14.098 2.96975 14.2143 3.368L14.6906 5H17.5677C17.8004 5 18.0235 5.10536 18.188 5.29289C18.3525 5.48043 18.4449 5.73478 18.4449 6C18.4449 6.26522 18.3525 6.51957 18.188 6.70711C18.0235 6.89464 17.8004 7 17.5677 7L17.5651 7.071L16.8046 19.214C16.7571 19.9706 16.46 20.6786 15.9731 21.1956C15.4861 21.7125 14.8455 21.9999 14.1801 22H6.92067C6.2553 21.9999 5.61466 21.7125 5.12771 21.1956C4.64076 20.6786 4.34365 19.9706 4.29619 19.214L3.53568 7.07C3.5341 7.04671 3.53322 7.02336 3.53305 7C3.30041 7 3.0773 6.89464 2.9128 6.70711C2.7483 6.51957 2.65588 6.26522 2.65588 6C2.65588 5.73478 2.7483 5.48043 2.9128 5.29289C3.0773 5.10536 3.30041 5 3.53305 5H6.41016L6.88646 3.368C7.00286 2.96959 7.22631 2.62305 7.52512 2.37752C7.82394 2.13198 8.18298 1.9999 8.55132 2H12.5503ZM15.8108 7H5.29002L6.04613 19.071C6.06188 19.3232 6.16085 19.5592 6.32311 19.7316C6.48537 19.904 6.69888 19.9999 6.92067 20H14.1801C14.4019 19.9999 14.6154 19.904 14.7777 19.7316C14.9399 19.5592 15.0389 19.3232 15.0546 19.071L15.8108 7ZM8.79605 10C9.0109 10 9.21827 10.09 9.37882 10.2527C9.53937 10.4155 9.64194 10.6397 9.66708 10.883L9.67322 11V16C9.67297 16.2549 9.58736 16.5 9.43389 16.6854C9.28041 16.8707 9.07065 16.9822 8.84746 16.9972C8.62427 17.0121 8.4045 16.9293 8.23306 16.7657C8.06161 16.6021 7.95143 16.3701 7.92503 16.117L7.91889 16V11C7.91889 10.7348 8.0113 10.4804 8.1758 10.2929C8.3403 10.1054 8.56341 10 8.79605 10ZM12.3047 10C12.5374 10 12.7605 10.1054 12.925 10.2929C13.0895 10.4804 13.1819 10.7348 13.1819 11V16C13.1819 16.2652 13.0895 16.5196 12.925 16.7071C12.7605 16.8946 12.5374 17 12.3047 17C12.0721 17 11.849 16.8946 11.6845 16.7071C11.52 16.5196 11.4276 16.2652 11.4276 16V11C11.4276 10.7348 11.52 10.4804 11.6845 10.2929C11.849 10.1054 12.0721 10 12.3047 10ZM12.5503 4H8.55045L8.25835 5H12.8424L12.5503 4Z" fill="black"/>
</g>
<defs>
<clipPath id="clip0_96_1577">
<rect width="21.052" height="24" fill="white" transform="translate(0.0244141)"/>
</clipPath>
</defs>
</svg>
