<svg width="24" height="30" viewBox="0 0 24 30" fill="none" xmlns="http://www.w3.org/2000/svg">
<path fill-rule="evenodd" clip-rule="evenodd" d="M4.72886 4.50316C5.68121 3.59242 6.81393 2.86945 8.06181 2.37587C9.30969 1.88229 10.6481 1.62783 12 1.62716C14.7257 1.62716 17.3417 2.6604 19.2711 4.50316C21.2035 6.35093 22.2872 8.84926 22.2857 11.4528C22.2857 15.9486 19.6594 20.0181 16.9234 23.0227C15.7705 24.2827 14.5205 25.4597 13.1837 26.5438V26.5438C12.4932 27.106 11.5071 27.1057 10.8163 26.5438V26.5438C9.47955 25.4597 8.22954 24.2827 7.07657 23.0227C4.34057 20.0181 1.71429 15.9486 1.71429 11.4528C1.71429 8.84524 2.79943 6.34592 4.72886 4.50316ZM11.5063 29.14V29.14C11.7522 28.8089 12.2478 28.8089 12.4937 29.14V29.14C12.3491 29.2364 12.1767 29.2881 12 29.2881C11.8233 29.2881 11.6509 29.2364 11.5063 29.14ZM11.5063 29.14V29.14C11.7522 28.8089 12.2478 28.8089 12.4937 29.14V29.14V29.14C12.496 29.1389 12.4982 29.1376 12.5003 29.1363L12.5057 29.1327L12.5314 29.1139L12.6326 29.0448C12.7183 28.9846 12.8434 28.8967 13.0011 28.7812C13.3166 28.5518 13.764 28.2141 14.298 27.7805C15.6998 26.6432 17.0105 25.4086 18.2194 24.0868C21.0549 20.9741 24 16.5311 24 11.4519C24 8.41729 22.7366 5.50468 20.4874 3.35683C19.3757 2.2938 18.0535 1.44995 16.5969 0.873846C15.1403 0.297743 13.578 0.000763411 12 0C10.422 0.000656838 8.8598 0.297508 7.40318 0.87347C5.94657 1.44943 4.62433 2.29313 3.51257 3.35602C1.26122 5.50878 -0.00151116 8.41947 1.35721e-06 11.4528C1.35721e-06 16.5311 2.94514 20.9741 5.78057 24.0868C6.98946 25.4086 8.30022 26.6432 9.702 27.7805C10.2369 28.2141 10.6834 28.5518 10.9989 28.7812C11.1536 28.8944 11.3099 29.0056 11.4677 29.1148L11.4951 29.1327L11.4998 29.1361C11.5018 29.1376 11.504 29.1389 11.5063 29.14V29.14ZM8.57143 11.3901C8.57143 10.527 8.93265 9.69927 9.57564 9.08896C10.2186 8.47866 11.0907 8.1358 12 8.1358C12.9093 8.1358 13.7814 8.47866 14.4244 9.08896C15.0673 9.69927 15.4286 10.527 15.4286 11.3901C15.4286 12.2532 15.0673 13.081 14.4244 13.6913C13.7814 14.3016 12.9093 14.6444 12 14.6444C11.0907 14.6444 10.2186 14.3016 9.57564 13.6913C8.93265 13.081 8.57143 12.2532 8.57143 11.3901ZM12 6.50864C10.636 6.50864 9.32792 7.02293 8.36345 7.93839C7.39898 8.85384 6.85714 10.0955 6.85714 11.3901C6.85714 12.6848 7.39898 13.9264 8.36345 14.8418C9.32792 15.7573 10.636 16.2716 12 16.2716C13.364 16.2716 14.6721 15.7573 15.6366 14.8418C16.601 13.9264 17.1429 12.6848 17.1429 11.3901C17.1429 10.0955 16.601 8.85384 15.6366 7.93839C14.6721 7.02293 13.364 6.50864 12 6.50864Z" fill="#303030"/>
</svg>
