<svg width="64" height="52" viewBox="0 0 64 52" fill="none" xmlns="http://www.w3.org/2000/svg">
<path d="M18.6575 5.61187H12.4005V23.1077H6.26717V5.61187H0.0101495V0H18.6575V5.61187ZM42.1796 0L34.315 15.6142V23.1077H28.1816V15.6142L20.144 0H27.3408L29.1214 3.96132C30.1601 6.22804 30.8774 8.39584 31.2731 10.4645H31.372C31.7677 8.43977 32.4683 6.25013 33.4741 3.8953L35.1559 0H42.1796ZM62.2513 5.61187H55.9943V23.1077H49.8609V5.61187H43.6039V0H62.2513V5.61187ZM18.6722 51.0401H0V27.9324H18.0292V33.1811H6.13336V36.8454H16.298V41.9291H6.13336V45.3952H18.6722V51.0401ZM41.7397 39.3212C41.7397 42.6883 40.9318 45.4832 39.3161 47.706C37.7003 49.9288 35.5734 51.0401 32.9354 51.0401H20.8912V27.9324H32.0945C33.4135 27.9324 34.6336 28.1415 35.7548 28.5596C36.8758 28.9777 37.8898 29.616 38.7967 30.4742C39.7199 31.3325 40.4372 32.5209 40.9483 34.0394C41.4759 35.536 41.7397 37.2965 41.7397 39.3212ZM35.1859 39.3212C35.1859 35.2059 33.7762 33.1481 30.9569 33.1481H27.0246V45.4282H30.9569C32.3088 45.4282 33.3475 44.9661 34.073 44.0418C34.815 43.1175 35.1859 41.544 35.1859 39.3212ZM64 51.0401H57.4957L56.7043 47.9701H49.0376L48.172 51.0401H41.7418L49.3096 27.9324H56.3086L64 51.0401ZM55.072 42.4573L52.772 34.2705L50.5956 42.4573H55.072Z" fill="url(#paint0_linear_967_9433)"/>
<defs>
<linearGradient id="paint0_linear_967_9433" x1="32" y1="0" x2="32" y2="51.0401" gradientUnits="userSpaceOnUse">
<stop stop-color="#FFA800"/>
<stop offset="1" stop-color="#FFEA2D"/>
</linearGradient>
</defs>
</svg>
