<svg width="45" height="38" viewBox="0 0 45 38" fill="none" xmlns="http://www.w3.org/2000/svg">
<rect width="45" height="38" rx="8" fill="url(#paint0_linear_96_1605)"/>
<path d="M13 10H15L15.5 13M15.5 13L17 22H28L31 13H15.5Z" stroke="black" stroke-width="2" stroke-linecap="round" stroke-linejoin="round"/>
<path d="M18 28C18.5523 28 19 27.5523 19 27C19 26.4477 18.5523 26 18 26C17.4477 26 17 26.4477 17 27C17 27.5523 17.4477 28 18 28Z" stroke="black" stroke-width="2" stroke-linecap="round" stroke-linejoin="round"/>
<path d="M27 28C27.5523 28 28 27.5523 28 27C28 26.4477 27.5523 26 27 26C26.4477 26 26 26.4477 26 27C26 27.5523 26.4477 28 27 28Z" stroke="black" stroke-width="2" stroke-linecap="round" stroke-linejoin="round"/>
<defs>
<linearGradient id="paint0_linear_96_1605" x1="22.5" y1="0" x2="22.5" y2="38" gradientUnits="userSpaceOnUse">
<stop stop-color="#FFA800"/>
<stop offset="1" stop-color="#FFEA2D"/>
</linearGradient>
</defs>
</svg>
