<svg width="20" height="21" viewBox="0 0 20 21" fill="none" xmlns="http://www.w3.org/2000/svg">
<path d="M1 1.17499H3L3.5 4.17499M3.5 4.17499L5 13.175H16L19 4.17499H3.5Z" stroke="white" stroke-width="2" stroke-linecap="round" stroke-linejoin="round"/>
<path d="M6 19.175C6.55228 19.175 7 18.7273 7 18.175C7 17.6227 6.55228 17.175 6 17.175C5.44772 17.175 5 17.6227 5 18.175C5 18.7273 5.44772 19.175 6 19.175Z" stroke="white" stroke-width="2" stroke-linecap="round" stroke-linejoin="round"/>
<path d="M15 19.175C15.5523 19.175 16 18.7273 16 18.175C16 17.6227 15.5523 17.175 15 17.175C14.4477 17.175 14 17.6227 14 18.175C14 18.7273 14.4477 19.175 15 19.175Z" stroke="white" stroke-width="2" stroke-linecap="round" stroke-linejoin="round"/>
</svg>
