<svg width="27" height="27" viewBox="0 0 27 27" fill="none" xmlns="http://www.w3.org/2000/svg">
<g id="bi:geo-fill">
<path id="Vector" fill-rule="evenodd" clip-rule="evenodd" d="M6.75 6.74998C6.75012 5.45099 7.12506 4.17962 7.82982 3.08843C8.53458 1.99724 9.53924 1.13259 10.7232 0.598215C11.9072 0.0638424 13.2202 -0.117546 14.5048 0.0758155C15.7893 0.269177 16.9907 0.829073 17.9649 1.68832C18.9391 2.54757 19.6447 3.66967 19.997 4.91998C20.3493 6.17029 20.3334 7.4957 19.9511 8.73716C19.5688 9.97863 18.8364 11.0834 17.8417 11.919C16.8471 12.7545 15.6326 13.2853 14.3438 13.4477V22.7812C14.3438 23.005 14.2549 23.2196 14.0966 23.3779C13.9384 23.5361 13.7238 23.625 13.5 23.625C13.2762 23.625 13.0616 23.5361 12.9034 23.3779C12.7451 23.2196 12.6562 23.005 12.6562 22.7812V13.4494C11.0244 13.2438 9.52372 12.4494 8.43617 11.2155C7.34863 9.9816 6.74902 8.39476 6.75 6.74998ZM10.9569 21.2186C10.9935 21.4392 10.941 21.6654 10.811 21.8473C10.6809 22.0293 10.484 22.1521 10.2634 22.1889C9.06187 22.388 8.10337 22.6867 7.47056 23.0209C7.2381 23.1326 7.02683 23.2839 6.84619 23.468C6.80535 23.5126 6.77278 23.564 6.75 23.6199V23.625L6.75337 23.6385C6.76001 23.6581 6.76909 23.6768 6.78038 23.6942C6.84698 23.7918 6.92972 23.8774 7.02506 23.9473C7.3035 24.1667 7.75912 24.4029 8.397 24.6139C9.66431 25.0357 11.4682 25.3125 13.5 25.3125C15.5317 25.3125 17.3357 25.0374 18.603 24.6139C19.2409 24.4012 19.6965 24.1667 19.9749 23.9473C20.0708 23.8775 20.1542 23.7919 20.2213 23.6942C20.232 23.6767 20.2405 23.658 20.2466 23.6385L20.25 23.625V23.6182C20.2272 23.5623 20.1946 23.5109 20.1538 23.4664C19.9731 23.2828 19.7618 23.1321 19.5294 23.0209C18.8949 22.6867 17.9381 22.388 16.7366 22.1889C16.6247 22.1738 16.517 22.1363 16.4198 22.0787C16.3226 22.0211 16.238 21.9446 16.171 21.8537C16.1039 21.7629 16.0558 21.6594 16.0294 21.5496C16.0031 21.4398 15.9991 21.3258 16.0176 21.2144C16.0361 21.103 16.0768 20.9964 16.1373 20.901C16.1978 20.8056 16.2768 20.7234 16.3697 20.6591C16.4625 20.5948 16.5674 20.5498 16.6779 20.5268C16.7885 20.5038 16.9026 20.5032 17.0134 20.525C18.3127 20.7394 19.4636 21.0785 20.3158 21.5274C21.0938 21.9375 21.9375 22.6125 21.9375 23.625C21.9375 24.3439 21.4988 24.894 21.0195 25.2737C20.5301 25.6584 19.872 25.9706 19.1363 26.2153C17.6546 26.7097 15.6617 27 13.5 27C11.3383 27 9.34537 26.7097 7.86375 26.2153C7.128 25.9706 6.46987 25.6584 5.9805 25.2737C5.50125 24.894 5.0625 24.3439 5.0625 23.625C5.0625 22.6142 5.90625 21.9375 6.68419 21.5274C7.53638 21.0785 8.68725 20.7394 9.98663 20.525C10.2073 20.4885 10.4334 20.5409 10.6153 20.671C10.7973 20.801 10.9201 20.998 10.9569 21.2186Z" fill="#39D520"/>
</g>
</svg>
