<svg xmlns="http://www.w3.org/2000/svg" xmlns:xlink="http://www.w3.org/1999/xlink" viewBox="0,0,256,256" width="64px" height="64px" fill-rule="nonzero"><g fill="#ffc43c" fill-rule="nonzero" stroke="none" stroke-width="1" stroke-linecap="butt" stroke-linejoin="miter" stroke-miterlimit="10" stroke-dasharray="" stroke-dashoffset="0" font-family="none" font-weight="none" font-size="none" text-anchor="none" style="mix-blend-mode: normal"><g transform="scale(3.55556,3.55556)"><path d="M60.116,20.02c2.314,1.631 2.082,4.155 1.185,5.532l-3.284,5.075v11.89c0,14.38 -1.12,15.5 -15.5,15.5h-13c-14.38,0 -15.5,-1.12 -15.5,-15.5v-13c0,-14.38 1.12,-15.5 15.5,-15.5h13c4.03,0 7.017,0.088 9.231,0.531l-16.001,24.729l-8.157,-9.353c-1.412,-1.472 -3.364,-1.186 -4.362,-0.196c-1.197,1.188 -1.181,2.924 -0.051,4.27l10.666,12.223c0.569,0.653 1.394,1.028 2.261,1.028c0.071,0 0.142,-0.002 0.214,-0.007c0.935,-0.067 1.796,-0.577 2.305,-1.363l15.964,-24.673c1.234,-1.874 3.667,-2.499 5.529,-1.186z"></path></g></g></svg>