<svg width="75" height="62" viewBox="0 0 75 62" fill="none" xmlns="http://www.w3.org/2000/svg">
<path d="M21.8643 6.81692H14.5318V28.0697H7.34434V6.81692H0.011894V0H21.8643V6.81692ZM49.4292 0L40.2129 18.9671V28.0697H33.0254V18.9671L23.6062 0H32.04L34.1267 4.81194C35.3439 7.56539 36.1844 10.1987 36.6481 12.7115H36.764C37.2278 10.2521 38.0488 7.59222 39.2275 4.73174L41.1983 0H49.4292ZM72.9507 6.81692H65.6183V28.0697H58.4308V6.81692H51.0983V0H72.9507V6.81692ZM21.8815 62H0V33.9303H21.1279V40.3062H7.18754V44.7572H19.0992V50.9325H7.18754V55.143H21.8815V62ZM48.9137 47.7647C48.9137 51.8548 47.9669 55.2499 46.0735 57.95C44.18 60.65 41.6875 62 38.5962 62H24.4819V33.9303H37.6108C39.1564 33.9303 40.5862 34.1844 41.9001 34.6922C43.2139 35.2001 44.4021 35.9754 45.4649 37.018C46.5468 38.0606 47.3873 39.5042 47.9863 41.3488C48.6045 43.1667 48.9137 45.3052 48.9137 47.7647ZM41.2335 47.7647C41.2335 42.7657 39.5815 40.2661 36.2776 40.2661H31.6695V55.1831H36.2776C37.8619 55.1831 39.0792 54.6217 39.9293 53.4989C40.7988 52.3761 41.2335 50.4648 41.2335 47.7647ZM75 62H67.3777L66.4503 58.2707H57.4659L56.4515 62H48.9162L57.7847 33.9303H65.9866L75 62ZM64.5375 51.5741L61.8422 41.6295L59.2918 51.5741H64.5375Z" fill="url(#paint0_linear_1225_12675)"/>
<defs>
<linearGradient id="paint0_linear_1225_12675" x1="37.5" y1="0" x2="37.5" y2="62" gradientUnits="userSpaceOnUse">
<stop stop-color="#FFA800"/>
<stop offset="1" stop-color="#FFEA2D"/>
</linearGradient>
</defs>
</svg>
